<svg width="192" height="192" viewBox="0 0 192 192" fill="none" xmlns="http://www.w3.org/2000/svg">
<path d="M87.4755 59.1003C88.5801 59.0959 89.4799 59.9879 89.4843 61.0925C89.4885 62.1968 88.5965 63.0958 87.4921 63.1003L51.4912 63.2429L51.4921 63.2438C45.9089 63.2764 40.4358 64.8063 35.6455 67.6745C30.8552 70.5427 26.9229 74.6444 24.2578 79.5505C24.2554 79.5549 24.2524 79.5598 24.25 79.5641C21.4674 84.5962 20.0049 90.2515 19.999 96.0016C19.9933 101.572 21.3545 107.056 23.9599 111.973L24.2158 112.448L24.2236 112.462C26.8775 117.375 30.8015 121.485 35.5859 124.365C40.3703 127.244 45.8399 128.787 51.4238 128.832C51.6696 128.834 51.9042 128.883 52.1211 128.966L84.2324 129.3C85.3369 129.312 86.2234 130.216 86.2119 131.321C86.2003 132.425 85.2957 133.311 84.1914 133.299L49.6347 132.94C49.3053 132.937 48.9961 132.852 48.7236 132.708C43.3589 132.256 38.1564 130.58 33.5234 127.792C28.1257 124.543 23.6982 119.906 20.7041 114.363V114.362C17.6111 108.736 15.9924 102.418 15.999 95.9977C16.0056 89.5768 17.6372 83.2614 20.7421 77.6413C23.749 72.1061 28.1863 67.4788 33.5908 64.2429C38.9953 61.0069 45.1696 59.2806 51.4687 59.2438H51.4716L87.4755 59.1003ZM140.608 58.696C146.908 58.7466 153.079 60.4874 158.477 63.736C163.87 66.9821 168.294 71.615 171.288 77.152L171.574 77.6813C174.486 83.1768 176.007 89.3056 176.001 95.5309C175.994 101.952 174.362 108.265 171.257 113.885L171.258 113.886C168.251 119.422 163.814 124.049 158.409 127.285C153.005 130.521 146.83 132.247 140.531 132.284C140.521 132.284 140.51 132.284 140.499 132.284L105.939 131.924C104.835 131.912 103.948 131.008 103.96 129.903C103.971 128.799 104.876 127.913 105.98 127.924L140.522 128.283C146.101 128.248 151.568 126.719 156.354 123.853C161.145 120.985 165.077 116.883 167.742 111.977C167.744 111.973 167.748 111.969 167.75 111.965C170.533 106.933 171.995 101.277 172.001 95.527C172.007 89.7767 170.556 84.1177 167.784 79.0798C167.782 79.0753 167.779 79.0706 167.776 79.0661C165.122 74.1531 161.198 70.0423 156.414 67.1628C151.887 64.4383 146.747 62.9111 141.477 62.7165C141.291 62.7746 141.093 62.8075 140.888 62.8083L104.888 62.9518C103.783 62.9561 102.884 62.0641 102.88 60.9597C102.876 59.8552 103.768 58.9563 104.872 58.9518L139.926 58.8122C140.139 58.7367 140.369 58.6941 140.608 58.696ZM128.956 92.9284C130.061 92.9284 130.956 93.8238 130.956 94.9284V95.6559C130.956 96.7605 130.061 97.6559 128.956 97.6559H62.0244C60.9198 97.6559 60.0244 96.7605 60.0244 95.6559V94.9284C60.0244 93.8238 60.9198 92.9284 62.0244 92.9284H128.956Z" fill="black"/>
</svg>
