<svg width="192" height="192" viewBox="0 0 192 192" fill="none" xmlns="http://www.w3.org/2000/svg">
<path d="M24 104H32V160C32 168.8 39.2 176 48 176H144C152.8 176 160 168.8 160 160V104H168C171.2 104 174.16 102.08 175.36 99.04C176.64 96.08 175.92 92.64 173.6 90.32L101.68 18.32C100.94 17.5784 100.061 16.99 99.093 16.5885C98.1252 16.1871 97.0877 15.9804 96.04 15.9804C94.9922 15.9804 93.9548 16.1871 92.987 16.5885C92.0192 16.99 91.1401 17.5784 90.4 18.32L18.32 90.32C16 92.64 15.36 96.08 16.56 99.04C17.76 102 20.72 104 23.92 104H24Z" fill="black"/>
</svg>
