<svg width="128" height="128" viewBox="0 0 128 128" fill="none" xmlns="http://www.w3.org/2000/svg">
<path d="M7.98221 83.9998C7.98226 74.4474 11.7774 65.2866 18.532 58.532L27.0115 50.0515C28.5736 48.4894 31.1066 48.4894 32.6687 50.0515C34.2307 51.6137 34.2308 54.1467 32.6687 55.7088L24.1883 64.1883C18.934 69.4426 15.9823 76.5691 15.9822 83.9998C15.9822 91.4305 18.934 98.557 24.1883 103.811C29.4426 109.066 36.5691 112.017 43.9998 112.017C51.4306 112.017 58.557 109.066 63.8113 103.811L72.2918 95.3318C73.8539 93.7697 76.3859 93.7698 77.948 95.3318C79.5101 96.8939 79.5101 99.426 77.948 100.988L69.4685 109.469C62.7139 116.223 53.5523 120.017 43.9998 120.017C34.4475 120.017 25.2866 116.223 18.532 109.469C11.7774 102.714 7.98221 93.5523 7.98221 83.9998ZM81.1717 41.1717C82.7338 39.6096 85.2668 39.6096 86.8289 41.1717C88.3907 42.7338 88.3909 45.2669 86.8289 46.8289L46.8289 86.8289C45.2669 88.3909 42.7338 88.3907 41.1717 86.8289C39.6096 85.2668 39.6096 82.7338 41.1717 81.1717L81.1717 41.1717ZM112.017 43.9998C112.017 36.5691 109.066 29.4426 103.811 24.1883C98.557 18.934 91.4305 15.9822 83.9998 15.9822C76.5691 15.9823 69.4426 18.934 64.1883 24.1883L55.7088 32.6687C54.1467 34.2308 51.6137 34.2307 50.0515 32.6687C48.4894 31.1066 48.4894 28.5736 50.0515 27.0115L58.532 18.532C65.2866 11.7774 74.4474 7.98226 83.9998 7.98221C93.5523 7.98221 102.714 11.7774 109.469 18.532C116.223 25.2866 120.017 34.4475 120.017 43.9998C120.017 53.5523 116.223 62.7139 109.469 69.4685L100.988 77.948C99.426 79.5101 96.8939 79.5101 95.3318 77.948C93.7698 76.3859 93.7697 73.8539 95.3318 72.2918L103.811 63.8113C109.066 58.557 112.017 51.4306 112.017 43.9998Z" fill="#91D7E3"/>
</svg>
