<svg width="192" height="192" viewBox="0 0 192 192" fill="none" xmlns="http://www.w3.org/2000/svg">
<path d="M27.7152 124.284C27.7153 119.031 28.75 113.829 30.7601 108.976C32.7703 104.123 35.7168 99.7136 39.431 95.9993L50.7435 84.6868C53.8677 81.563 58.9329 81.5628 62.057 84.6868C65.1812 87.811 65.1812 92.8771 62.057 96.0013L50.7445 107.313C48.516 109.541 46.7485 112.187 45.5424 115.099C44.3363 118.011 43.7153 121.132 43.7152 124.284C43.7152 127.435 44.3362 130.557 45.5424 133.469C46.7485 136.381 48.516 139.027 50.7445 141.255C52.9732 143.484 55.6197 145.252 58.5316 146.458C61.4434 147.664 64.5645 148.284 67.7162 148.284C70.8679 148.284 73.9889 147.664 76.9008 146.458C79.8126 145.252 82.4582 143.484 84.6869 141.255L95.9789 129.948C99.1009 126.821 104.167 126.817 107.293 129.939C110.42 133.061 110.423 138.127 107.301 141.253L96.0013 152.569C92.287 156.283 87.8768 159.229 83.0238 161.24C78.1707 163.25 72.9691 164.284 67.7162 164.284C62.4632 164.284 57.2617 163.25 52.4086 161.24C47.5554 159.229 43.1455 156.283 39.431 152.569C35.7168 148.854 32.7703 144.445 30.7601 139.592C28.7499 134.739 27.7152 129.536 27.7152 124.284ZM112.975 67.7191C116.099 64.5949 121.164 64.5951 124.288 67.7191C127.413 70.8432 127.413 75.9083 124.288 79.0325L79.0326 124.288C75.9084 127.413 70.8433 127.413 67.7191 124.288C64.5952 121.164 64.595 116.099 67.7191 112.975L112.975 67.7191ZM148.277 67.7161C148.277 64.5643 147.656 61.4434 146.45 58.5316C145.243 55.6196 143.476 52.9731 141.247 50.7444C139.019 48.5158 136.372 46.7484 133.46 45.5423C130.548 44.3362 127.427 43.7151 124.276 43.7151C121.124 43.7152 118.003 44.3362 115.091 45.5423C112.179 46.7484 109.534 48.5159 107.305 50.7444L95.9926 62.0569C92.8683 65.1809 87.8032 65.1811 84.6791 62.0569C81.555 58.9328 81.5551 53.8677 84.6791 50.7435L95.9916 39.431C99.7059 35.7167 104.115 32.7703 108.968 30.7601C113.821 28.7499 119.023 27.7152 124.276 27.7151C129.529 27.7151 134.73 28.7499 139.583 30.7601C144.436 32.7703 148.847 35.7166 152.561 39.431C156.275 43.1454 159.222 47.5554 161.232 52.4085C163.242 57.2616 164.277 62.4632 164.277 67.7161C164.277 72.9691 163.242 78.1707 161.232 83.0237C159.222 87.8768 156.275 92.2869 152.561 96.0013L141.248 107.313C138.124 110.437 133.059 110.437 129.935 107.313C126.811 104.189 126.811 99.1235 129.935 95.9993L141.247 84.6868C143.476 82.4582 145.243 79.8124 146.45 76.9007C147.656 73.9888 148.277 70.8679 148.277 67.7161Z" fill="black"/>
</svg>
