<svg width="192" height="192" viewBox="0 0 192 192" fill="none" xmlns="http://www.w3.org/2000/svg">
<path d="M32 112C32 107.757 33.6859 103.687 36.6865 100.687C39.6871 97.6859 43.7565 96 48 96C52.2435 96 56.3129 97.6859 59.3135 100.687C62.3141 103.687 64 107.757 64 112C64 116.243 62.3141 120.313 59.3135 123.313C56.3129 126.314 52.2435 128 48 128C43.7565 128 39.6871 126.314 36.6865 123.313C33.6859 120.313 32 116.243 32 112ZM80 96C80 91.7565 81.6859 87.6871 84.6865 84.6865C87.6871 81.6859 91.7565 80 96 80C100.243 80 104.313 81.6859 107.313 84.6865C110.314 87.6871 112 91.7565 112 96C112 100.243 110.314 104.313 107.313 107.313C104.313 110.314 100.243 112 96 112C91.7565 112 87.6871 110.314 84.6865 107.313C81.6859 104.313 80 100.243 80 96ZM128 80C128 75.7565 129.686 71.6871 132.687 68.6865C135.687 65.6859 139.757 64 144 64C148.243 64 152.313 65.6859 155.313 68.6865C158.314 71.6871 160 75.7565 160 80C160 84.2435 158.314 88.3129 155.313 91.3135C152.313 94.3141 148.243 96 144 96C139.757 96 135.687 94.3141 132.687 91.3135C129.686 88.3129 128 84.2435 128 80Z" fill="black"/>
</svg>
