<svg width="144" height="144" viewBox="0 0 144 144" fill="none" xmlns="http://www.w3.org/2000/svg">
<g clip-path="url(#clip0_79_301)">
<path d="M72 8C59.342 8 46.9683 11.7535 36.4435 18.7859C25.9188 25.8184 17.7157 35.8138 12.8717 47.5083C8.02773 59.2027 6.76032 72.071 9.22977 84.4858C11.6992 96.9006 17.7946 108.304 26.7452 117.255C35.6958 126.205 47.0995 132.301 59.5143 134.77C71.929 137.24 84.7973 135.972 96.4918 131.128C108.186 126.284 118.182 118.081 125.214 107.556C132.246 97.0317 136 84.658 136 72C136 55.0261 129.257 38.7475 117.255 26.7452C105.253 14.7428 88.9739 8 72 8ZM104 96.4C105.061 97.4609 105.657 98.8997 105.657 100.4C105.657 101.9 105.061 103.339 104 104.4C102.939 105.461 101.5 106.057 100 106.057C98.4997 106.057 97.0609 105.461 96 104.4L72 80.4L48 104.48C47.4747 105.005 46.8511 105.422 46.1648 105.706C45.4785 105.991 44.7429 106.137 44 106.137C43.2572 106.137 42.5216 105.991 41.8352 105.706C41.1489 105.422 40.5253 105.005 40 104.48C39.4747 103.955 39.0581 103.331 38.7738 102.645C38.4895 101.958 38.3432 101.223 38.3432 100.48C38.3432 99.7371 38.4895 99.0015 38.7738 98.3152C39.0581 97.6289 39.4747 97.0053 40 96.48L64 72.32L39.32 47.44C38.2592 46.3791 37.6632 44.9403 37.6632 43.44C37.6632 41.9397 38.2592 40.5009 39.32 39.44C40.3809 38.3791 41.8197 37.7831 43.32 37.7831C44.8203 37.7831 46.2592 38.3791 47.32 39.44L72 64.4L96.68 39.72C97.2053 39.1947 97.8289 38.778 98.5152 38.4937C99.2016 38.2095 99.9372 38.0631 100.68 38.0631C101.423 38.0631 102.158 38.2095 102.845 38.4937C103.531 38.778 104.155 39.1947 104.68 39.72C105.205 40.2453 105.622 40.8689 105.906 41.5552C106.191 42.2415 106.337 42.9771 106.337 43.72C106.337 44.4629 106.191 45.1985 105.906 45.8848C105.622 46.5711 105.205 47.1947 104.68 47.72L80 72.32L104 96.4Z" fill="black"/>
</g>
<defs>
<clipPath id="clip0_79_301">
<rect width="144" height="144" fill="white"/>
</clipPath>
</defs>
</svg>
