<svg width="192" height="192" viewBox="0 0 192 192" fill="none" xmlns="http://www.w3.org/2000/svg">
<path opacity="0.5" d="M96 16C80.1775 16 64.7103 20.6919 51.5544 29.4824C38.3985 38.2729 28.1447 50.7672 22.0896 65.3853C16.0346 80.0034 14.4504 96.0887 17.5372 111.607C20.624 127.126 28.2433 141.38 39.4315 152.569C50.6197 163.757 64.8743 171.376 80.3928 174.463C95.9113 177.55 111.997 175.965 126.615 169.91C141.233 163.855 153.727 153.602 162.518 140.446C171.308 127.29 176 111.823 176 96C176 85.4943 173.931 75.0914 169.91 65.3853C165.89 55.6793 159.997 46.8601 152.569 39.4315C145.14 32.0028 136.321 26.11 126.615 22.0896C116.909 18.0693 106.506 16 96 16ZM96 160C83.342 160 70.9683 156.246 60.4435 149.214C49.9188 142.182 41.7157 132.186 36.8717 120.492C32.0277 108.797 30.7603 95.929 33.2297 83.5142C35.6992 71.0994 41.7946 59.6957 50.7452 50.7452C59.6957 41.7946 71.0994 35.6992 83.5142 33.2297C95.929 30.7603 108.797 32.0277 120.492 36.8717C132.186 41.7157 142.182 49.9188 149.214 60.4435C156.246 70.9683 160 83.342 160 96C160 112.974 153.257 129.253 141.255 141.255C129.253 153.257 112.974 160 96 160Z" fill="black"/>
<path d="M160 96H176C176 85.4943 173.931 75.0914 169.91 65.3853C165.89 55.6793 159.997 46.8601 152.569 39.4315C145.14 32.0028 136.321 26.11 126.615 22.0896C116.909 18.0693 106.506 16 96 16V32C112.974 32 129.253 38.7428 141.255 50.7452C153.257 62.7475 160 79.0261 160 96Z" fill="black"/>
</svg>
