<svg width="192" height="192" viewBox="0 0 192 192" fill="none" xmlns="http://www.w3.org/2000/svg">
<path d="M154.8 80.32C152.113 66.7017 144.781 54.4389 134.057 45.626C123.332 36.8131 109.881 31.9969 96 32C72.88 32 52.8 45.12 42.8 64.32C31.0419 65.5907 20.1681 71.1617 12.2679 79.9626C4.36777 88.7635 -0.00137361 100.173 3.23942e-07 112C3.23942e-07 138.48 21.52 160 48 160H152C174.08 160 192 142.08 192 120C192 98.88 175.6 81.76 154.8 80.32ZM80 136L52 108L63.28 96.72L80 113.36L121.44 72L132.72 83.28L80 136Z" fill="black"/>
</svg>
