<svg width="192" height="192" viewBox="0 0 192 192" fill="none" xmlns="http://www.w3.org/2000/svg">
<path d="M154.8 80.32C152.113 66.7017 144.781 54.4389 134.057 45.626C123.332 36.8131 109.881 31.9969 96 32C72.88 32 52.8 45.12 42.8 64.32C31.0419 65.5907 20.1681 71.1617 12.2679 79.9626C4.36777 88.7635 -0.00137361 100.173 3.23942e-07 112C3.23942e-07 138.48 21.52 160 48 160H152C174.08 160 192 142.08 192 120C192 98.88 175.6 81.76 154.8 80.32ZM152 144H48C30.32 144 16 129.68 16 112C16 95.6 28.24 81.92 44.48 80.24L53.04 79.36L57.04 71.76C60.7197 64.5988 66.3038 58.5916 73.1777 54.3995C80.0516 50.2075 87.9487 47.993 96 48C116.96 48 135.04 62.88 139.12 83.44L141.52 95.44L153.76 96.32C159.774 96.7245 165.411 99.3919 169.538 103.785C173.664 108.179 175.973 113.973 176 120C176 133.2 165.2 144 152 144ZM80 113.44L63.28 96.72L52 108L80 136L128.08 87.92L116.8 76.64L80 113.44Z" fill="black"/>
</svg>
