<svg width="192" height="192" viewBox="0 0 192 192" fill="none" xmlns="http://www.w3.org/2000/svg">
<path d="M160.087 60.8881C160.087 58.7867 159.673 56.7054 158.869 54.764C158.065 52.8227 156.885 51.0593 155.399 49.5736L155.398 49.5726C153.913 48.0867 152.149 46.9071 150.208 46.1029C148.267 45.2987 146.185 44.8851 144.084 44.8851C141.983 44.8851 139.901 45.2987 137.96 46.1029C136.019 46.9071 134.255 48.0867 132.77 49.5726L62.0605 120.285C61.6891 120.656 61.3944 121.098 61.1934 121.583C60.9924 122.069 60.8887 122.588 60.8887 123.114C60.8887 123.639 60.9923 124.16 61.1934 124.645C61.3944 125.13 61.6891 125.571 62.0605 125.943C62.8106 126.693 63.8271 127.114 64.8877 127.114C65.948 127.114 66.9648 126.692 67.7148 125.943L127.115 66.5433C130.239 63.4191 135.305 63.4191 138.429 66.5433C141.553 69.6675 141.553 74.7326 138.429 77.8568L79.0283 137.258C75.2778 141.008 70.1909 143.114 64.8877 143.114C59.5847 143.114 54.4985 141.007 50.748 137.258C48.8906 135.401 47.4164 133.196 46.4111 130.769C45.4058 128.342 44.8887 125.74 44.8887 123.114C44.8887 120.487 45.4059 117.886 46.4111 115.459C47.4164 113.033 48.8898 110.828 50.7471 108.971L121.455 38.2592C124.427 35.2873 127.954 32.9301 131.837 31.3217C135.72 29.7132 139.881 28.8851 144.084 28.8851C148.287 28.8851 152.448 29.7132 156.331 31.3217C160.214 32.9301 163.741 35.2873 166.713 38.2592C169.685 41.2307 172.042 44.7582 173.65 48.641C175.259 52.5238 176.087 56.6853 176.087 60.8881C176.087 65.0908 175.259 69.2524 173.65 73.1351C172.042 77.0177 169.685 80.5455 166.713 83.517L96.001 154.225C91.9153 158.311 87.0648 161.552 81.7266 163.763C76.3882 165.974 70.6659 167.113 64.8877 167.113C59.1096 167.113 53.3881 165.974 48.0498 163.763C42.7115 161.552 37.8611 158.311 33.7754 154.225L33.7744 154.224C25.5244 145.973 20.8896 134.782 20.8896 123.114C20.8897 111.445 25.5243 100.255 33.7744 92.0033L93.1709 32.6029C96.2949 29.4789 101.36 29.479 104.484 32.6029C107.609 35.7269 107.609 40.7921 104.485 43.9164L45.0889 103.317C39.839 108.568 36.8897 115.689 36.8896 123.114C36.8896 130.539 39.8389 137.661 45.0889 142.911L45.582 143.392C48.076 145.766 50.988 147.662 54.1729 148.981C57.5699 150.388 61.2108 151.113 64.8877 151.113C68.5647 151.113 72.2064 150.388 75.6035 148.981C79.0005 147.574 82.0875 145.512 84.6875 142.911L155.399 72.2025C156.885 70.7167 158.065 68.9525 158.869 67.0111C159.673 65.0699 160.087 62.9892 160.087 60.8881Z" fill="black"/>
</svg>
