<svg width="192" height="192" viewBox="0 0 192 192" fill="none" xmlns="http://www.w3.org/2000/svg">
<path d="M160 96C160 60.6583 131.342 32 96 32C91.5817 32 88 28.4183 88 24C88 19.5817 91.5817 16 96 16C140.178 16 176 51.8217 176 96C176 100.418 172.418 104 168 104C163.582 104 160 100.418 160 96Z" fill="black"/>
<path opacity="0.3" d="M160 96C160 60.6583 131.342 32 96 32C60.6583 32 32 60.6583 32 96C32 131.342 60.6583 160 96 160C131.342 160 160 131.342 160 96ZM176 96C176 140.178 140.178 176 96 176C51.8217 176 16 140.178 16 96C16 51.8217 51.8217 16 96 16C140.178 16 176 51.8217 176 96Z" fill="black"/>
</svg>
