<svg width="192" height="192" viewBox="0 0 192 192" fill="none" xmlns="http://www.w3.org/2000/svg">
<path d="M88 66C95.5878 66 103.817 68.503 109.657 74.3428C112.781 77.467 112.781 82.533 109.657 85.6572C106.533 88.7814 101.467 88.7814 98.3428 85.6572C96.1826 83.497 92.4122 82 88 82C83.5878 82 79.8174 83.497 77.6572 85.6572L37.6572 125.657C35.497 127.817 34 131.588 34 136C34 140.412 35.497 144.183 37.6572 146.343L45.6572 154.343C47.8174 156.503 51.5878 158 56 158C60.4122 158 64.1826 156.503 66.3428 154.343L82.3428 138.343C85.467 135.219 90.533 135.219 93.6572 138.343C96.7814 141.467 96.7814 146.533 93.6572 149.657L77.6572 165.657C71.8174 171.497 63.5878 174 56 174C48.4122 174 40.1826 171.497 34.3428 165.657L26.3428 157.657C20.503 151.817 18 143.588 18 136C18 128.412 20.503 120.183 26.3428 114.343L66.3428 74.3428C72.1826 68.503 80.4122 66 88 66ZM136 18C143.588 18 151.817 20.503 157.657 26.3428L165.657 34.3428C171.497 40.1826 174 48.4122 174 56C174 63.5878 171.497 71.8174 165.657 77.6572L125.657 117.657C119.817 123.497 111.588 126 104 126C96.4122 126 88.1826 123.497 82.3428 117.657C79.2186 114.533 79.2186 109.467 82.3428 106.343C85.467 103.219 90.533 103.219 93.6572 106.343C95.8174 108.503 99.5878 110 104 110C108.412 110 112.183 108.503 114.343 106.343L154.343 66.3428C156.503 64.1826 158 60.4122 158 56C158 51.5878 156.503 47.8174 154.343 45.6572L146.343 37.6572C144.183 35.497 140.412 34 136 34C131.588 34 127.817 35.497 125.657 37.6572L109.657 53.6572C106.533 56.7814 101.467 56.7814 98.3428 53.6572C95.2186 50.533 95.2186 45.467 98.3428 42.3428L114.343 26.3428C120.183 20.503 128.412 18 136 18Z" fill="black"/>
</svg>
