<svg width="192" height="192" viewBox="0 0 192 192" fill="none" xmlns="http://www.w3.org/2000/svg">
<path d="M102.704 141.104C104.635 139.168 105.6 136.8 105.6 134C105.6 131.2 104.635 128.832 102.704 126.896C100.773 124.96 98.4053 123.995 95.6 124C92.7947 124.005 90.4293 124.973 88.504 126.904C86.5787 128.835 85.6107 131.2 85.6 134C85.5893 136.8 86.5573 139.168 88.504 141.104C90.4507 143.04 92.816 144.005 95.6 144C98.384 143.995 100.752 143.027 102.704 141.096M88.4 113.2H103.2C103.2 108.8 103.701 105.333 104.704 102.8C105.707 100.267 108.539 96.8 113.2 92.4C116.667 88.9333 119.4 85.632 121.4 82.496C123.4 79.36 124.4 75.5946 124.4 71.2C124.4 63.7333 121.667 58 116.2 54C110.733 50 104.267 48 96.8 48C89.2 48 83.0347 50 78.304 54C73.5733 58 70.272 62.8 68.4 68.4L81.6 73.6C82.2667 71.2 83.768 68.6 86.104 65.8C88.44 63 92.0053 61.6 96.8 61.6C101.067 61.6 104.267 62.768 106.4 65.104C108.533 67.44 109.6 70.0053 109.6 72.8C109.6 75.4667 108.8 77.968 107.2 80.304C105.6 82.64 103.6 84.8053 101.2 86.8C95.3333 92 91.7333 95.9333 90.4 98.6C89.0667 101.267 88.4 106.133 88.4 113.2ZM96 176C84.9333 176 74.5333 173.901 64.8 169.704C55.0667 165.507 46.6 159.805 39.4 152.6C32.2 145.395 26.5013 136.928 22.304 127.2C18.1067 117.472 16.0053 107.072 16 96C15.9947 84.928 18.096 74.528 22.304 64.8C26.512 55.072 32.2107 46.6053 39.4 39.4C46.5893 32.1946 55.056 26.496 64.8 22.304C74.544 18.112 84.944 16.0106 96 16C107.056 15.9893 117.456 18.0906 127.2 22.304C136.944 26.5173 145.411 32.216 152.6 39.4C159.789 46.584 165.491 55.0507 169.704 64.8C173.917 74.5493 176.016 84.9493 176 96C175.984 107.051 173.883 117.451 169.696 127.2C165.509 136.949 159.811 145.416 152.6 152.6C145.389 159.784 136.923 165.485 127.2 169.704C117.477 173.923 107.077 176.021 96 176ZM96 160C113.867 160 129 153.8 141.4 141.4C153.8 129 160 113.867 160 96C160 78.1333 153.8 63 141.4 50.6C129 38.2 113.867 32 96 32C78.1333 32 63 38.2 50.6 50.6C38.2 63 32 78.1333 32 96C32 113.867 38.2 129 50.6 141.4C63 153.8 78.1333 160 96 160Z" fill="black"/>
</svg>
