<svg width="192" height="192" viewBox="0 0 192 192" fill="none" xmlns="http://www.w3.org/2000/svg">
<path d="M96 176C77.4667 171.333 62.1653 160.699 50.096 144.096C38.0267 127.493 31.9947 109.061 32 88.8V40L96 16L160 40V88.8C160 109.067 153.968 127.501 141.904 144.104C129.84 160.707 114.539 171.339 96 176ZM96 159.2C109.867 154.8 121.333 146 130.4 132.8C139.467 119.6 144 104.933 144 88.8V51L96 33L48 51V88.8C48 104.933 52.5333 119.6 61.6 132.8C70.6667 146 82.1333 154.8 96 159.2Z" fill="black"/>
</svg>
