<svg width="192" height="192" viewBox="0 0 192 192" fill="none" xmlns="http://www.w3.org/2000/svg">
<path d="M84.928 128.616H56.616C47.592 128.616 39.9013 125.437 33.544 119.08C27.1867 112.723 24.0053 105.029 24 96C23.9947 86.9706 27.176 79.2773 33.544 72.92C39.912 66.5626 47.6027 63.3813 56.616 63.376H84.928V71.376H56.616C49.8427 71.376 44.048 73.7866 39.232 78.608C34.4107 83.4346 32 89.232 32 96C32 102.768 34.4107 108.563 39.232 113.384C44.0533 118.205 49.848 120.616 56.616 120.616H84.928V128.616ZM68 100V92H124V100H68ZM107.08 128.616V120.616H135.384C142.157 120.616 147.952 118.205 152.768 113.384C157.589 108.563 160 102.768 160 96C160 89.232 157.589 83.4373 152.768 78.616C147.947 73.7946 142.152 71.384 135.384 71.384H107.08V63.384H135.384C144.408 63.384 152.101 66.5626 158.464 72.92C164.827 79.2773 168.005 86.9706 168 96C167.995 105.029 164.813 112.723 158.456 119.08C152.099 125.437 144.408 128.619 135.384 128.624L107.08 128.616Z" fill="black"/>
</svg>
