<svg width="128" height="128" viewBox="0 0 128 128" fill="none" xmlns="http://www.w3.org/2000/svg">
<path d="M40 56H88V72H40V56Z" fill="#42A5F5"/>
<path d="M48 88H38.248C32.3501 87.9915 26.6961 85.6448 22.5256 81.4744C18.3552 77.3039 16.0085 71.6499 16 65.752V62.248C16.0085 56.3501 18.3552 50.6961 22.5256 46.5256C26.6961 42.3552 32.3501 40.0085 38.248 40H48V24H38.248C33.2249 23.9989 28.2508 24.9875 23.6099 26.9093C18.9689 28.8311 14.7521 31.6484 11.2002 35.2002C7.64837 38.7521 4.83109 42.9689 2.90932 47.6099C0.987546 52.2508 -0.00105013 57.2249 8.37072e-07 62.248V65.752C-0.00105013 70.7751 0.987546 75.7492 2.90932 80.3901C4.83109 85.0311 7.64837 89.2479 11.2002 92.7998C14.7521 96.3516 18.9689 99.1689 23.6099 101.091C28.2508 103.012 33.2249 104.001 38.248 104H48V88ZM89.752 24H80V40H89.752C95.6499 40.0085 101.304 42.3552 105.474 46.5256C109.645 50.6961 111.992 56.3501 112 62.248V65.752C111.992 71.6499 109.645 77.3039 105.474 81.4744C101.304 85.6448 95.6499 87.9915 89.752 88H80V104H89.752C94.7751 104.001 99.7492 103.012 104.39 101.091C109.031 99.1689 113.248 96.3516 116.8 92.7998C120.352 89.2479 123.169 85.0311 125.091 80.3901C127.012 75.7492 128.001 70.7751 128 65.752V62.248C128.001 57.2249 127.012 52.2508 125.091 47.6099C123.169 42.9689 120.352 38.7521 116.8 35.2002C113.248 31.6484 109.031 28.8311 104.39 26.9093C99.7492 24.9875 94.7751 23.9989 89.752 24Z" fill="#42A5F5"/>
</svg>
