<svg width="192" height="192" viewBox="0 0 192 192" fill="none" xmlns="http://www.w3.org/2000/svg">
<path d="M93.712 166.536C92.912 166.403 92.16 166.203 91.456 165.936C75.7173 159.936 63.208 149.76 53.928 135.408C44.6427 121.056 40 105.52 40 88.8V54.536C40 51.7947 40.7813 49.3253 42.344 47.128C43.9013 44.9307 45.92 43.3387 48.4 42.352L91.48 26.352C93.0373 25.7867 94.544 25.504 96 25.504C97.456 25.504 98.9653 25.7867 100.528 26.352L143.6 42.352C146.075 43.344 148.093 44.936 149.656 47.128C151.219 49.3253 152 51.7947 152 54.536V88.8C152 105.52 147.36 121.056 138.08 135.408C128.8 149.76 116.288 159.936 100.544 165.936C99.8453 166.203 99.096 166.403 98.296 166.536C97.496 166.669 96.7307 166.736 96 166.736C95.2693 166.736 94.512 166.669 93.712 166.536ZM96 159.2C109.867 154.8 121.333 146 130.4 132.8C139.467 119.6 144 104.933 144 88.8V54.384C144 53.36 143.717 52.4373 143.152 51.616C142.592 50.7947 141.797 50.1813 140.768 49.776L97.696 33.776C97.184 33.5627 96.6187 33.456 96 33.456C95.3813 33.456 94.816 33.5627 94.304 33.776L51.232 49.776C50.2027 50.1813 49.408 50.7947 48.848 51.616C48.2827 52.4373 48 53.36 48 54.384V88.8C48 104.933 52.5333 119.6 61.6 132.8C70.6667 146 82.1333 154.8 96 159.2Z" fill="black"/>
</svg>
