<svg width="192" height="192" viewBox="0 0 192 192" fill="none" xmlns="http://www.w3.org/2000/svg">
<path d="M88 136H56C44.9333 136 35.5013 132.099 27.704 124.296C19.9067 116.493 16.0053 107.061 16 96C15.9947 84.9387 19.896 75.5067 27.704 67.704C35.512 59.9013 44.944 56 56 56H88V72H56C49.3333 72 43.6667 74.3333 39 79C34.3333 83.6667 32 89.3333 32 96C32 102.667 34.3333 108.333 39 113C43.6667 117.667 49.3333 120 56 120H88V136ZM64 104V88H128V104H64ZM104 136V120H136C142.667 120 148.333 117.667 153 113C157.667 108.333 160 102.667 160 96C160 89.3333 157.667 83.6667 153 79C148.333 74.3333 142.667 72 136 72H104V56H136C147.067 56 156.501 59.9013 164.304 67.704C172.107 75.5067 176.005 84.9387 176 96C175.995 107.061 172.093 116.496 164.296 124.304C156.499 132.112 147.067 136.011 136 136H104Z" fill="black"/>
</svg>
