<svg width="192" height="192" viewBox="0 0 192 192" fill="none" xmlns="http://www.w3.org/2000/svg">
<path d="M100.704 136.016C101.92 134.789 102.528 133.296 102.528 131.536C102.528 129.765 101.915 128.272 100.688 127.056C99.472 125.84 97.9787 125.232 96.208 125.232C94.4373 125.232 92.944 125.843 91.728 127.064C90.512 128.285 89.9067 129.779 89.912 131.544C89.912 133.315 90.52 134.808 91.736 136.024C92.9627 137.24 94.4587 137.848 96.224 137.848C97.9893 137.848 99.4827 137.235 100.704 136.008M92.08 111.36H99.808C100.011 107.883 100.664 105.056 101.768 102.88C102.872 100.709 105.141 97.936 108.576 94.56C112.149 90.992 114.805 87.7947 116.544 84.968C118.283 82.1413 119.155 78.872 119.16 75.16C119.16 68.856 116.947 63.832 112.52 60.088C108.088 56.344 102.845 54.472 96.792 54.472C91.0373 54.472 86.152 56.0347 82.136 59.16C78.12 62.2907 75.1787 65.8853 73.312 69.944L80.672 72.992C81.952 70.08 83.784 67.5067 86.168 65.272C88.552 63.032 91.992 61.912 96.488 61.912C101.672 61.912 105.459 63.336 107.848 66.184C110.243 69.032 111.44 72.1627 111.44 75.576C111.44 78.3493 110.691 80.824 109.192 83C107.699 85.1813 105.752 87.3733 103.352 89.576C98.712 93.8533 95.672 97.48 94.232 100.456C92.792 103.432 92.0747 107.067 92.08 111.36ZM96.024 168C86.072 168 76.712 166.112 67.944 162.336C59.1813 158.555 51.5573 153.424 45.072 146.944C38.5867 140.464 33.4533 132.848 29.672 124.096C25.8907 115.344 24 105.987 24 96.024C24 86.0613 25.8907 76.7013 29.672 67.944C33.448 59.1813 38.5707 51.5573 45.04 45.072C51.5093 38.5867 59.128 33.4533 67.896 29.672C76.664 25.8907 86.024 24 95.976 24C105.928 24 115.288 25.8907 124.056 29.672C132.819 33.448 140.443 38.5733 146.928 45.048C153.413 51.5227 158.547 59.1413 162.328 67.904C166.109 76.6667 168 86.024 168 95.976C168 105.928 166.112 115.288 162.336 124.056C158.56 132.824 153.429 140.448 146.944 146.928C140.459 153.408 132.843 158.541 124.096 162.328C115.349 166.115 105.992 168.005 96.024 168Z" fill="black"/>
</svg>
