<svg width="192" height="192" viewBox="0 0 192 192" fill="none" xmlns="http://www.w3.org/2000/svg">
<path d="M32 104V168H88V104H32ZM96 104V168H152V104H96ZM160 104V176H24V104H16V56H40.32L40 52C40 44.5739 42.95 37.452 48.201 32.201C53.452 26.95 60.5739 24 68 24C78.16 24 87.12 29.44 92 37.6C96.88 29.44 105.84 24 116 24C123.426 24 130.548 26.95 135.799 32.201C141.05 37.452 144 44.5739 144 52L143.68 56H168V104H160ZM24 64V96H88V64H24ZM160 96V64H96V96H160ZM135.6 56L136 52C136 46.6957 133.893 41.6086 130.142 37.8579C126.391 34.1071 121.304 32 116 32C110.696 32 105.609 34.1071 101.858 37.8579C98.1071 41.6086 96 46.6957 96 52V56H135.6ZM88 56V52C88 46.6957 85.8929 41.6086 82.1421 37.8579C78.3914 34.1071 73.3043 32 68 32C62.6957 32 57.6086 34.1071 53.8579 37.8579C50.1071 41.6086 48 46.6957 48 52L48.4 56H88Z" fill="black"/>
</svg>
