<svg width="192" height="192" viewBox="0 0 192 192" fill="none" xmlns="http://www.w3.org/2000/svg">
<path d="M176 96V160C176 164.243 174.314 168.313 171.314 171.314C168.313 174.314 164.243 176 160 176H32C27.7565 176 23.6869 174.314 20.6863 171.314C17.6857 168.313 16 164.243 16 160V96C13.8783 96 11.8434 95.1571 10.3431 93.6569C8.84285 92.1566 8 90.1217 8 88V64C8 59.7565 9.68571 55.6869 12.6863 52.6863C15.6869 49.6857 19.7565 48 24 48H49.36C48.4559 45.4299 47.996 42.7245 48 40C48 33.6348 50.5286 27.5303 55.0294 23.0294C59.5303 18.5286 65.6348 16 72 16C80 16 87.04 20 91.44 25.92V25.84L96 32L100.56 25.84V25.92C104.96 20 112 16 120 16C126.365 16 132.47 18.5286 136.971 23.0294C141.471 27.5303 144 33.6348 144 40C144.004 42.7245 143.544 45.4299 142.64 48H168C172.243 48 176.313 49.6857 179.314 52.6863C182.314 55.6869 184 59.7565 184 64V88C184 90.1217 183.157 92.1566 181.657 93.6569C180.157 95.1571 178.122 96 176 96ZM32 160H88V96H32V160ZM160 160V96H104V160H160ZM72 32C69.8783 32 67.8434 32.8429 66.3431 34.3431C64.8429 35.8434 64 37.8783 64 40C64 42.1217 64.8429 44.1566 66.3431 45.6569C67.8434 47.1571 69.8783 48 72 48C74.1217 48 76.1566 47.1571 77.6569 45.6569C79.1571 44.1566 80 42.1217 80 40C80 37.8783 79.1571 35.8434 77.6569 34.3431C76.1566 32.8429 74.1217 32 72 32ZM120 32C117.878 32 115.843 32.8429 114.343 34.3431C112.843 35.8434 112 37.8783 112 40C112 42.1217 112.843 44.1566 114.343 45.6569C115.843 47.1571 117.878 48 120 48C122.122 48 124.157 47.1571 125.657 45.6569C127.157 44.1566 128 42.1217 128 40C128 37.8783 127.157 35.8434 125.657 34.3431C124.157 32.8429 122.122 32 120 32ZM24 64V80H88V64H24ZM104 64V80H168V64H104Z" fill="black"/>
</svg>
