<svg width="192" height="192" viewBox="0 0 192 192" fill="none" xmlns="http://www.w3.org/2000/svg">
<path d="M80 152H104V176H80V152ZM96 16C138.8 17.76 157.44 60.96 132 93.36C125.36 101.36 114.64 106.64 109.36 113.36C104 120 104 128 104 136H80C80 122.64 80 111.36 85.36 103.36C90.64 95.36 101.36 90.64 108 85.36C127.36 67.44 122.56 42.08 96 40C89.6348 40 83.5303 42.5286 79.0294 47.0294C74.5286 51.5303 72 57.6348 72 64H48C48 51.2696 53.0571 39.0606 62.0589 30.0589C71.0606 21.0571 83.2696 16 96 16Z" fill="black"/>
</svg>
