<svg width="192" height="192" viewBox="0 0 192 192" fill="none" xmlns="http://www.w3.org/2000/svg">
<path d="M72.48 15.44C57.36 15.36 42.64 29.92 49.36 48H24C19.7565 48 15.6869 49.6857 12.6863 52.6863C9.68571 55.6869 8 59.7566 8 64V80C8 82.1218 8.84285 84.1566 10.3431 85.6569C11.8434 87.1572 13.8783 88 16 88H88V64H104V88H176C178.122 88 180.157 87.1572 181.657 85.6569C183.157 84.1566 184 82.1218 184 80V64C184 59.7566 182.314 55.6869 179.314 52.6863C176.313 49.6857 172.243 48 168 48H142.64C152 21.84 116.8 3.36003 100.56 25.92L96 32L91.44 25.76C86.4 18.64 79.44 15.52 72.48 15.44ZM72 32C79.12 32 82.72 40.64 77.68 45.68C72.64 50.72 64 47.12 64 40C64 37.8783 64.8429 35.8435 66.3431 34.3432C67.8434 32.8429 69.8783 32 72 32ZM120 32C127.12 32 130.72 40.64 125.68 45.68C120.64 50.72 112 47.12 112 40C112 37.8783 112.843 35.8435 114.343 34.3432C115.843 32.8429 117.878 32 120 32ZM16 96V160C16 164.243 17.6857 168.313 20.6863 171.314C23.6869 174.314 27.7565 176 32 176H160C164.243 176 168.313 174.314 171.314 171.314C174.314 168.313 176 164.243 176 160V96H104V160H88V96H16Z" fill="black"/>
</svg>
