<svg width="192" height="192" viewBox="0 0 192 192" fill="none" xmlns="http://www.w3.org/2000/svg">
<path d="M96 16C76.9044 16 58.5909 23.5857 45.0883 37.0883C31.5857 50.5909 24 68.9044 24 88V176L48 152L72 176L96 152L120 176L144 152L168 176V88C168 68.9044 160.414 50.5909 146.912 37.0883C133.409 23.5857 115.096 16 96 16ZM72 64C76.2435 64 80.3131 65.6857 83.3137 68.6863C86.3143 71.6869 88 75.7565 88 80C88 84.2435 86.3143 88.3131 83.3137 91.3137C80.3131 94.3143 76.2435 96 72 96C67.7565 96 63.6869 94.3143 60.6863 91.3137C57.6857 88.3131 56 84.2435 56 80C56 75.7565 57.6857 71.6869 60.6863 68.6863C63.6869 65.6857 67.7565 64 72 64ZM120 64C124.243 64 128.313 65.6857 131.314 68.6863C134.314 71.6869 136 75.7565 136 80C136 84.2435 134.314 88.3131 131.314 91.3137C128.313 94.3143 124.243 96 120 96C115.757 96 111.687 94.3143 108.686 91.3137C105.686 88.3131 104 84.2435 104 80C104 75.7565 105.686 71.6869 108.686 68.6863C111.687 65.6857 115.757 64 120 64Z" fill="black"/>
</svg>
