<svg width="192" height="192" viewBox="0 0 192 192" fill="none" xmlns="http://www.w3.org/2000/svg">
<path d="M96 16C76.9044 16 58.5909 23.5857 45.0883 37.0883C31.5857 50.5909 24 68.9044 24 88V176L48 152L72 176L96 152L120 176L144 152L168 176V88C168 68.9044 160.414 50.5909 146.912 37.0883C133.409 23.5857 115.096 16 96 16ZM152 137.36L144 129.36L132.72 140.72L120 153.36L107.28 140.72L96 129.36L84.72 140.72L72 153.36L59.28 140.72L48 129.36L40 137.36V88C40 57.12 65.12 32 96 32C126.88 32 152 57.12 152 88V137.36ZM88 80C88 88.88 80.88 96 72 96C63.12 96 56 88.88 56 80C56 71.12 63.2 64 72 64C80.8 64 88 71.2 88 80ZM136 80C136 88.88 128.88 96 120 96C111.12 96 104 88.88 104 80C104 71.12 111.2 64 120 64C128.8 64 136 71.2 136 80Z" fill="black"/>
</svg>
