<svg width="128" height="128" viewBox="0 0 128 128" fill="none" xmlns="http://www.w3.org/2000/svg">
<path fill-rule="evenodd" clip-rule="evenodd" d="M24 108C22.9391 108 21.9217 107.579 21.1716 106.828C20.4214 106.078 20 105.061 20 104V24C20 22.9391 20.4214 21.9217 21.1716 21.1716C21.9217 20.4214 22.9391 20 24 20H98C99.5913 20 101.117 19.3679 102.243 18.2426C103.368 17.1174 104 15.5913 104 14C104 12.4087 103.368 10.8826 102.243 9.75736C101.117 8.63214 99.5913 8 98 8H24C19.7565 8 15.6869 9.68571 12.6863 12.6863C9.68571 15.6869 8 19.7565 8 24V104C8 108.243 9.68571 112.313 12.6863 115.314C15.6869 118.314 19.7565 120 24 120H104C108.243 120 112.313 118.314 115.314 115.314C118.314 112.313 120 108.243 120 104V78C120 76.4087 119.368 74.8826 118.243 73.7574C117.117 72.6321 115.591 72 114 72C112.409 72 110.883 72.6321 109.757 73.7574C108.632 74.8826 108 76.4087 108 78V104C108 105.061 107.579 106.078 106.828 106.828C106.078 107.579 105.061 108 104 108H24ZM126.24 37.44C127.3 36.3026 127.877 34.7982 127.849 33.2438C127.822 31.6894 127.192 30.2063 126.093 29.107C124.994 28.0077 123.511 27.378 121.956 27.3506C120.402 27.3232 118.897 27.9002 117.76 28.96L73.296 73.416L58.312 57.928C57.7653 57.3568 57.1111 56.8992 56.387 56.5816C55.6629 56.2641 54.8831 56.0928 54.0926 56.0776C53.3021 56.0624 52.5163 56.2036 51.7805 56.4931C51.0447 56.7825 50.3734 57.2146 49.8052 57.7644C49.2369 58.3142 48.7829 58.9709 48.4693 59.6967C48.1557 60.4226 47.9887 61.2032 47.9778 61.9938C47.9669 62.7845 48.1124 63.5694 48.4059 64.3036C48.6994 65.0378 49.1351 65.7068 49.688 66.272L68.912 86.144C69.4651 86.7177 70.127 87.1754 70.859 87.4905C71.5909 87.8056 72.3784 87.9717 73.1752 87.9792C73.9721 87.9866 74.7625 87.8352 75.5002 87.5339C76.2379 87.2325 76.9082 86.7872 77.472 86.224L126.24 37.44Z" fill="black"/>
</svg>
