<svg width="128" height="128" viewBox="0 0 128 128" fill="none" xmlns="http://www.w3.org/2000/svg">
<path d="M104 16H24C21.8783 16 19.8434 16.8429 18.3431 18.3431C16.8429 19.8434 16 21.8783 16 24V104C16 106.122 16.8429 108.157 18.3431 109.657C19.8434 111.157 21.8783 112 24 112H104C106.122 112 108.157 111.157 109.657 109.657C111.157 108.157 112 106.122 112 104V24C112 21.8783 111.157 19.8434 109.657 18.3431C108.157 16.8429 106.122 16 104 16ZM57.85 96.245C53.3928 99.2831 47.9622 100.548 42.6212 99.793C37.2803 99.0377 32.4134 96.3162 28.9735 92.1614C25.5335 88.0065 23.768 82.7173 24.0226 77.3292C24.2772 71.9411 26.5336 66.842 30.35 63.03L43.035 50.345C47.0987 46.2887 52.6058 44.0106 58.3475 44.0106C64.0892 44.0106 69.5963 46.2887 73.66 50.345C75.8557 52.5275 77.5528 55.1595 78.635 58.06C78.8189 58.5525 78.9039 59.0763 78.8853 59.6016C78.8667 60.127 78.7448 60.6435 78.5266 61.1217C78.3084 61.5999 77.9981 62.0305 77.6135 62.3888C77.2289 62.7471 76.7775 63.0261 76.285 63.21C75.7925 63.3938 75.2687 63.4789 74.7434 63.4603C74.218 63.4417 73.7015 63.3198 73.2233 63.1016C72.7451 62.8834 72.3145 62.5731 71.9562 62.1885C71.5979 61.8039 71.3189 61.3525 71.135 60.86C70.3312 58.7209 69.0037 56.8175 67.2741 55.3241C65.5445 53.8306 63.468 52.7947 61.2346 52.3112C59.0012 51.8277 56.6822 51.9121 54.4898 52.5565C52.2974 53.2009 50.3016 54.3849 48.685 56L36 68.685C33.5955 71.0896 32.1743 74.3046 32.0144 77.7014C31.8544 81.0982 32.9672 84.4326 35.1351 87.0525C37.3031 89.6724 40.3703 91.3895 43.737 91.868C47.1037 92.3465 50.5279 91.5521 53.34 89.64C53.7725 89.3165 54.2661 89.084 54.7909 88.9565C55.3158 88.829 55.861 88.809 56.3938 88.8979C56.9265 88.9868 57.4357 89.1826 57.8907 89.4737C58.3457 89.7647 58.7371 90.1448 59.0412 90.5912C59.3453 91.0376 59.5559 91.5409 59.6602 92.0708C59.7645 92.6008 59.7604 93.1463 59.6482 93.6747C59.5359 94.203 59.3178 94.7031 59.0071 95.1448C58.6963 95.5866 58.2993 95.9608 57.84 96.245H57.85ZM97.655 64.97L84.97 77.655C82.9648 79.6729 80.579 81.2728 77.9509 82.3619C75.3229 83.4511 72.5048 84.0079 69.66 84C65.2534 83.9942 60.9532 82.6455 57.3326 80.1335C53.7121 77.6216 50.9432 74.0657 49.395 69.94C49.0237 68.9454 49.0627 67.8441 49.5034 66.8783C49.9441 65.9125 50.7504 65.1613 51.745 64.79C52.7396 64.4187 53.8409 64.4577 54.8067 64.8984C55.7725 65.3391 56.5237 66.1454 56.895 67.14C57.871 69.7345 59.6125 71.9712 61.8886 73.5535C64.1647 75.1358 66.868 75.989 69.64 76C71.4347 76.0052 73.2126 75.6543 74.8707 74.9677C76.5289 74.2811 78.0343 73.2724 79.3 72L92 59.315C94.4045 56.9104 95.8257 53.6954 95.9856 50.2986C96.1456 46.9018 95.0328 43.5674 92.8649 40.9475C90.6969 38.3276 87.6297 36.6105 84.263 36.132C80.8963 35.6535 77.4721 36.4479 74.66 38.36C74.2275 38.6835 73.7339 38.916 73.2091 39.0435C72.6842 39.171 72.139 39.191 71.6062 39.1021C71.0735 39.0132 70.5643 38.8173 70.1093 38.5263C69.6543 38.2353 69.2629 37.8552 68.9588 37.4088C68.6547 36.9624 68.4441 36.4591 68.3398 35.9292C68.2355 35.3992 68.2396 34.8537 68.3518 34.3253C68.4641 33.797 68.6822 33.2969 68.9929 32.8552C69.3037 32.4134 69.7007 32.0392 70.16 31.755C74.6181 28.7322 80.0425 27.4789 85.3748 28.2396C90.707 29.0003 95.5646 31.7204 98.9996 35.8693C102.435 40.0181 104.2 45.2979 103.953 50.6785C103.705 56.059 101.462 61.1543 97.66 64.97H97.655Z" fill="black"/>
</svg>
