<svg width="192" height="192" viewBox="0 0 192 192" fill="none" xmlns="http://www.w3.org/2000/svg">
<path fill-rule="evenodd" clip-rule="evenodd" d="M176 153.648V96C176 51.816 140.184 16 96 16C51.816 16 16 51.816 16 96V153.648C16.0005 156.003 16.6031 158.319 17.7505 160.376C18.898 162.433 20.5523 164.162 22.5562 165.4C24.5601 166.638 26.8472 167.343 29.2001 167.448C31.5531 167.553 33.8938 167.054 36 166C39.6458 164.176 43.7091 163.349 47.7778 163.602C51.8465 163.855 55.7761 165.179 59.168 167.44C62.9674 169.975 67.4325 171.328 72 171.328C76.5675 171.328 81.0326 169.975 84.832 167.44L87.656 165.568C90.1269 163.92 93.0302 163.041 96 163.041C98.9698 163.041 101.873 163.92 104.344 165.568L107.168 167.448C110.967 169.983 115.433 171.336 120 171.336C124.567 171.336 129.033 169.983 132.832 167.448C136.225 165.185 140.156 163.86 144.226 163.607C148.296 163.354 152.361 164.183 156.008 166.008C158.114 167.061 160.455 167.557 162.808 167.451C165.16 167.345 167.446 166.639 169.449 165.401C171.452 164.162 173.106 162.433 174.252 160.376C175.399 158.319 176 156.003 176 153.648ZM128 84C128 90.624 124.416 96 120 96C115.584 96 112 90.624 112 84C112 77.376 115.584 72 120 72C124.416 72 128 77.376 128 84ZM72 96C76.416 96 80 90.624 80 84C80 77.376 76.416 72 72 72C67.584 72 64 77.376 64 84C64 90.624 67.584 96 72 96Z" fill="black"/>
</svg>
