<svg width="192" height="192" viewBox="0 0 192 192" fill="none" xmlns="http://www.w3.org/2000/svg">
<path d="M128 84C128 90.624 124.416 96 120 96C115.584 96 112 90.624 112 84C112 77.376 115.584 72 120 72C124.416 72 128 77.376 128 84Z" fill="black"/>
<path d="M72 96C76.4183 96 80 90.6274 80 84C80 77.3726 76.4183 72 72 72C67.5817 72 64 77.3726 64 84C64 90.6274 67.5817 96 72 96Z" fill="black"/>
<path d="M10 157.784V98.4004C10 49.7514 48.3361 10 96 10C143.664 10 182 49.7348 182 98.4082V157.784C182 172.554 166.7 182.765 153.262 175.847L153.256 175.844C150.588 174.466 147.595 173.84 144.599 174.032C141.603 174.225 138.714 175.227 136.244 176.934L136.245 176.935C131.471 180.236 125.804 182.005 120 182.005C114.204 182.005 108.545 180.241 103.775 176.948V176.949L100.951 175.013L100.943 175.007C99.4892 174.006 97.7652 173.471 96 173.471C94.2348 173.471 92.5108 174.006 91.0566 175.007L91.0488 175.013L88.2246 176.949L88.2236 176.948C83.454 180.241 77.796 182.005 72 182.005C66.1967 182.005 60.5312 180.237 55.7578 176.937L55.2891 176.625C52.9261 175.108 50.2134 174.216 47.4053 174.035C44.4099 173.843 41.4184 174.468 38.751 175.844L38.7441 175.848C25.3021 182.761 10.0001 172.558 10 157.784ZM22 157.784C22.0001 164.159 28.3082 167.715 33.249 165.18L33.6816 164.961C38.1717 162.74 43.1701 161.738 48.1748 162.06C53.3407 162.391 58.3192 164.121 62.5781 167.063L62.5811 167.065C65.3491 168.98 68.6346 170.005 72 170.005C75.3654 170.005 78.6509 168.98 81.4189 167.065L81.4297 167.059L81.4395 167.051L84.2637 165.115C87.7172 162.742 91.8093 161.471 96 161.471C100.191 161.471 104.283 162.742 107.736 165.115L110.561 167.051L110.57 167.059L110.581 167.065C113.349 168.98 116.635 170.005 120 170.005C123.365 170.005 126.651 168.98 129.419 167.065L129.421 167.064C133.681 164.12 138.661 162.388 143.829 162.057C148.997 161.725 154.159 162.805 158.761 165.181H158.76C163.689 167.713 170 164.164 170 157.784V98.4082C170 56.0256 136.704 22 96 22C55.2959 22 22 56.0414 22 98.4004V157.784Z" fill="black"/>
</svg>
