<svg width="128" height="128" viewBox="0 0 128 128" fill="none" xmlns="http://www.w3.org/2000/svg">
<path d="M79.24 106.68V112.76H91.4V118.88H36.56V112.76H48.76V106.68H36.56V94.48H30.48V118.88H18.28V124.96H109.72V118.88H97.52V94.48H91.4V106.68H79.24Z" fill="black"/>
<path d="M85.32 82.28H91.4V94.48H85.32V82.28ZM85.32 33.52H91.4V45.72H85.32V33.52ZM79.24 76.2H85.32V82.28H79.24V76.2ZM73.12 70.12H79.24V76.2H73.12V70.12ZM67.04 100.56H79.24V106.68H67.04V100.56Z" fill="black"/>
<path d="M79.24 57.92V51.8H85.32V45.72H42.64V51.8H48.76V57.92H54.84V70.12H60.96V100.56H67.04V70.12H73.12V57.92H79.24ZM48.76 100.56H60.96V106.68H48.76V100.56Z" fill="black"/>
<path d="M48.76 70.12H54.84V76.2H48.76V70.12ZM42.64 76.2H48.76V82.28H42.64V76.2ZM36.56 82.28H42.64V94.48H36.56V82.28ZM36.56 33.52H42.64V45.72H36.56V33.52ZM36.56 9.16001H91.4V33.52H97.52V9.16001H109.72V3.04001H18.28V9.16001H30.48V33.52H36.56V9.16001Z" fill="black"/>
</svg>
