<svg width="98" height="24" viewBox="0 0 98 24" fill="none" xmlns="http://www.w3.org/2000/svg">
<foreignObject x="0" y="0" width="98" height="24"><div xmlns="http://www.w3.org/1999/xhtml" style="backdrop-filter:blur(32px);clip-path:url(#bgblur_0_30788_66804_clip_path);height:100%;width:100%"></div></foreignObject><g filter="url(#filter0_i_30788_66804)" data-figma-bg-blur-radius="64">
<rect width="98" height="24" rx="12" fill="#121212"/>
<rect x="0.5" y="0.5" width="97" height="23" rx="11.5" stroke="#121212"/>
<path d="M12.996 16V7.06H14.172V14.92H18.096V16H12.996ZM19.2859 16V9.532H20.4019V16H19.2859ZM19.2859 8.5V7.06H20.4019V8.5H19.2859ZM22.1335 16V9.532H23.2255V10.792L23.0455 10.684C23.2055 10.276 23.4615 9.96 23.8135 9.736C24.1735 9.504 24.5935 9.388 25.0735 9.388C25.5375 9.388 25.9495 9.492 26.3095 9.7C26.6775 9.908 26.9655 10.196 27.1735 10.564C27.3895 10.932 27.4975 11.348 27.4975 11.812V16H26.3695V12.172C26.3695 11.812 26.3055 11.508 26.1775 11.26C26.0495 11.012 25.8655 10.82 25.6255 10.684C25.3935 10.54 25.1255 10.468 24.8215 10.468C24.5175 10.468 24.2455 10.54 24.0055 10.684C23.7735 10.82 23.5895 11.016 23.4535 11.272C23.3175 11.52 23.2495 11.82 23.2495 12.172V16H22.1335ZM29.0945 16V6.916H30.2105V13.144L29.7545 13.036L33.1865 9.532H34.6145L32.1305 12.136L34.7825 16H33.4625L31.0385 12.496L31.7345 12.46L29.8505 14.428L30.2105 13.612V16H29.0945ZM35.8699 17.02V16H41.4139V17.02H35.8699ZM45.7233 16L42.4953 7.06H43.7553L46.4913 14.92H46.2393L48.9753 7.06H50.2353L47.0193 16H45.7233ZM53.6095 16.144C52.9855 16.144 52.4295 15.996 51.9415 15.7C51.4535 15.404 51.0695 15 50.7895 14.488C50.5095 13.968 50.3695 13.388 50.3695 12.748C50.3695 12.1 50.5055 11.524 50.7775 11.02C51.0575 10.516 51.4335 10.12 51.9055 9.832C52.3855 9.536 52.9215 9.388 53.5135 9.388C53.9935 9.388 54.4175 9.476 54.7855 9.652C55.1615 9.82 55.4775 10.052 55.7335 10.348C55.9975 10.636 56.1975 10.968 56.3335 11.344C56.4775 11.712 56.5495 12.096 56.5495 12.496C56.5495 12.584 56.5415 12.684 56.5255 12.796C56.5175 12.9 56.5055 13 56.4895 13.096H51.1855V12.136H55.8415L55.3135 12.568C55.3855 12.152 55.3455 11.78 55.1935 11.452C55.0415 11.124 54.8175 10.864 54.5215 10.672C54.2255 10.48 53.8895 10.384 53.5135 10.384C53.1375 10.384 52.7935 10.48 52.4815 10.672C52.1695 10.864 51.9255 11.14 51.7495 11.5C51.5815 11.852 51.5135 12.272 51.5455 12.76C51.5135 13.232 51.5855 13.648 51.7615 14.008C51.9455 14.36 52.2015 14.636 52.5295 14.836C52.8655 15.028 53.2295 15.124 53.6215 15.124C54.0535 15.124 54.4175 15.024 54.7135 14.824C55.0095 14.624 55.2495 14.368 55.4335 14.056L56.3695 14.536C56.2415 14.832 56.0415 15.104 55.7695 15.352C55.5055 15.592 55.1895 15.784 54.8215 15.928C54.4615 16.072 54.0575 16.144 53.6095 16.144ZM58.0046 16V9.532H59.0966V10.72L58.9766 10.552C59.1286 10.184 59.3606 9.912 59.6726 9.736C59.9846 9.552 60.3646 9.46 60.8126 9.46H61.2086V10.516H60.6446C60.1886 10.516 59.8206 10.66 59.5406 10.948C59.2606 11.228 59.1206 11.628 59.1206 12.148V16H58.0046ZM64.8865 16.072C64.2545 16.072 63.7665 15.892 63.4225 15.532C63.0865 15.172 62.9185 14.664 62.9185 14.008V10.6H61.7425V9.532H61.9825C62.2705 9.532 62.4985 9.444 62.6665 9.268C62.8345 9.092 62.9185 8.86 62.9185 8.572V8.044H64.0345V9.532H65.4865V10.6H64.0345V13.972C64.0345 14.188 64.0665 14.376 64.1305 14.536C64.2025 14.696 64.3185 14.824 64.4785 14.92C64.6385 15.008 64.8505 15.052 65.1145 15.052C65.1705 15.052 65.2385 15.048 65.3185 15.04C65.4065 15.032 65.4865 15.024 65.5585 15.016V16C65.4545 16.024 65.3385 16.04 65.2105 16.048C65.0825 16.064 64.9745 16.072 64.8865 16.072ZM67.0163 16V9.532H68.1323V16H67.0163ZM67.0163 8.5V7.06H68.1323V8.5H67.0163ZM72.864 16.144C72.232 16.144 71.668 15.996 71.172 15.7C70.684 15.404 70.3 15 70.02 14.488C69.74 13.976 69.6 13.4 69.6 12.76C69.6 12.112 69.74 11.536 70.02 11.032C70.3 10.528 70.684 10.128 71.172 9.832C71.668 9.536 72.232 9.388 72.864 9.388C73.288 9.388 73.684 9.464 74.052 9.616C74.42 9.768 74.744 9.972 75.024 10.228C75.304 10.484 75.508 10.784 75.636 11.128L74.64 11.608C74.488 11.272 74.256 11 73.944 10.792C73.632 10.576 73.272 10.468 72.864 10.468C72.472 10.468 72.116 10.568 71.796 10.768C71.484 10.968 71.236 11.24 71.052 11.584C70.868 11.928 70.776 12.324 70.776 12.772C70.776 13.204 70.868 13.596 71.052 13.948C71.236 14.292 71.484 14.564 71.796 14.764C72.116 14.964 72.472 15.064 72.864 15.064C73.272 15.064 73.632 14.96 73.944 14.752C74.256 14.536 74.488 14.252 74.64 13.9L75.636 14.404C75.508 14.74 75.304 15.04 75.024 15.304C74.744 15.56 74.42 15.764 74.052 15.916C73.684 16.068 73.288 16.144 72.864 16.144ZM78.9084 16.144C78.4844 16.144 78.1084 16.068 77.7804 15.916C77.4604 15.756 77.2084 15.54 77.0244 15.268C76.8404 14.988 76.7484 14.668 76.7484 14.308C76.7484 13.964 76.8204 13.656 76.9644 13.384C77.1164 13.104 77.3484 12.868 77.6604 12.676C77.9804 12.484 78.3804 12.348 78.8604 12.268L81.2604 11.872V12.808L79.1124 13.168C78.6964 13.24 78.3924 13.372 78.2004 13.564C78.0164 13.756 77.9244 13.992 77.9244 14.272C77.9244 14.536 78.0284 14.756 78.2364 14.932C78.4524 15.108 78.7204 15.196 79.0404 15.196C79.4484 15.196 79.8004 15.112 80.0964 14.944C80.4004 14.768 80.6364 14.532 80.8044 14.236C80.9804 13.94 81.0684 13.612 81.0684 13.252V11.608C81.0684 11.256 80.9364 10.972 80.6724 10.756C80.4164 10.532 80.0764 10.42 79.6524 10.42C79.2844 10.42 78.9564 10.516 78.6684 10.708C78.3884 10.892 78.1804 11.14 78.0444 11.452L77.0724 10.948C77.1924 10.652 77.3844 10.388 77.6484 10.156C77.9124 9.916 78.2204 9.728 78.5724 9.592C78.9244 9.456 79.2924 9.388 79.6764 9.388C80.1724 9.388 80.6084 9.484 80.9844 9.676C81.3604 9.86 81.6524 10.12 81.8604 10.456C82.0764 10.784 82.1844 11.168 82.1844 11.608V16H81.0924V14.776L81.2964 14.848C81.1604 15.104 80.9764 15.328 80.7444 15.52C80.5124 15.712 80.2404 15.864 79.9284 15.976C79.6164 16.088 79.2764 16.144 78.9084 16.144ZM83.9148 16V6.916H85.0308V16H83.9148Z" fill="white"/>
</g>
<defs>
<filter id="filter0_i_30788_66804" x="0" y="0" width="98" height="24" filterUnits="userSpaceOnUse" color-interpolation-filters="sRGB">
<feFlood flood-opacity="0" result="BackgroundImageFix"/>
<feBlend mode="normal" in="SourceGraphic" in2="BackgroundImageFix" result="shape"/>
<feColorMatrix in="SourceAlpha" type="matrix" values="0 0 0 0 0 0 0 0 0 0 0 0 0 0 0 0 0 0 127 0" result="hardAlpha"/>
<feOffset dy="1"/>
<feComposite in2="hardAlpha" operator="arithmetic" k2="-1" k3="1"/>
<feColorMatrix type="matrix" values="0 0 0 0 1 0 0 0 0 1 0 0 0 0 1 0 0 0 0.08 0"/>
<feBlend mode="normal" in2="shape" result="effect1_innerShadow_30788_66804"/>
</filter>
<clipPath id="bgblur_0_30788_66804_clip_path" transform="translate(0 0)"><rect width="98" height="24" rx="12"/>
</clipPath></defs>
</svg>
