<svg width="73" height="24" viewBox="0 0 73 24" fill="none" xmlns="http://www.w3.org/2000/svg">
<foreignObject x="0" y="0" width="73" height="24"><div xmlns="http://www.w3.org/1999/xhtml" style="backdrop-filter:blur(32px);clip-path:url(#bgblur_0_30788_66813_clip_path);height:100%;width:100%"></div></foreignObject><g filter="url(#filter0_i_30788_66813)" data-figma-bg-blur-radius="64">
<rect width="73" height="24" rx="12" fill="#121212"/>
<rect x="0.5" y="0.5" width="72" height="23" rx="11.5" stroke="#121212"/>
<path d="M16.068 16.144C15.5 16.144 14.98 16.04 14.508 15.832C14.036 15.616 13.636 15.324 13.308 14.956C12.98 14.588 12.744 14.176 12.6 13.72L13.62 13.3C13.836 13.876 14.156 14.32 14.58 14.632C15.012 14.936 15.516 15.088 16.092 15.088C16.444 15.088 16.752 15.032 17.016 14.92C17.28 14.808 17.484 14.652 17.628 14.452C17.78 14.244 17.856 14.004 17.856 13.732C17.856 13.356 17.748 13.06 17.532 12.844C17.324 12.62 17.016 12.452 16.608 12.34L14.964 11.836C14.316 11.636 13.82 11.32 13.476 10.888C13.132 10.456 12.96 9.96 12.96 9.4C12.96 8.912 13.076 8.484 13.308 8.116C13.548 7.74 13.876 7.448 14.292 7.24C14.716 7.024 15.196 6.916 15.732 6.916C16.268 6.916 16.752 7.012 17.184 7.204C17.624 7.396 17.996 7.656 18.3 7.984C18.604 8.304 18.828 8.672 18.972 9.088L17.964 9.508C17.772 9.004 17.484 8.624 17.1 8.368C16.716 8.104 16.264 7.972 15.744 7.972C15.424 7.972 15.14 8.028 14.892 8.14C14.652 8.244 14.464 8.4 14.328 8.608C14.2 8.808 14.136 9.048 14.136 9.328C14.136 9.656 14.24 9.948 14.448 10.204C14.656 10.46 14.972 10.656 15.396 10.792L16.896 11.236C17.6 11.452 18.132 11.76 18.492 12.16C18.852 12.56 19.032 13.056 19.032 13.648C19.032 14.136 18.904 14.568 18.648 14.944C18.4 15.32 18.052 15.616 17.604 15.832C17.164 16.04 16.652 16.144 16.068 16.144ZM23.5978 16.144C22.9738 16.144 22.4178 15.996 21.9298 15.7C21.4418 15.404 21.0578 15 20.7778 14.488C20.4978 13.968 20.3578 13.388 20.3578 12.748C20.3578 12.1 20.4938 11.524 20.7658 11.02C21.0458 10.516 21.4218 10.12 21.8938 9.832C22.3738 9.536 22.9098 9.388 23.5018 9.388C23.9818 9.388 24.4058 9.476 24.7738 9.652C25.1498 9.82 25.4658 10.052 25.7218 10.348C25.9858 10.636 26.1858 10.968 26.3218 11.344C26.4658 11.712 26.5378 12.096 26.5378 12.496C26.5378 12.584 26.5298 12.684 26.5138 12.796C26.5058 12.9 26.4938 13 26.4778 13.096H21.1738V12.136H25.8298L25.3018 12.568C25.3738 12.152 25.3338 11.78 25.1818 11.452C25.0298 11.124 24.8058 10.864 24.5098 10.672C24.2138 10.48 23.8778 10.384 23.5018 10.384C23.1258 10.384 22.7818 10.48 22.4698 10.672C22.1578 10.864 21.9138 11.14 21.7378 11.5C21.5698 11.852 21.5018 12.272 21.5338 12.76C21.5018 13.232 21.5738 13.648 21.7498 14.008C21.9338 14.36 22.1898 14.636 22.5178 14.836C22.8538 15.028 23.2178 15.124 23.6098 15.124C24.0418 15.124 24.4058 15.024 24.7018 14.824C24.9978 14.624 25.2378 14.368 25.4218 14.056L26.3578 14.536C26.2298 14.832 26.0298 15.104 25.7578 15.352C25.4938 15.592 25.1778 15.784 24.8098 15.928C24.4498 16.072 24.0458 16.144 23.5978 16.144ZM30.6209 16.072C29.9889 16.072 29.5009 15.892 29.1569 15.532C28.8209 15.172 28.6529 14.664 28.6529 14.008V10.6H27.4769V9.532H27.7169C28.0049 9.532 28.2329 9.444 28.4009 9.268C28.5689 9.092 28.6529 8.86 28.6529 8.572V8.044H29.7689V9.532H31.2209V10.6H29.7689V13.972C29.7689 14.188 29.8009 14.376 29.8649 14.536C29.9369 14.696 30.0529 14.824 30.2129 14.92C30.3729 15.008 30.5849 15.052 30.8489 15.052C30.9049 15.052 30.9729 15.048 31.0529 15.04C31.1409 15.032 31.2209 15.024 31.2929 15.016V16C31.1889 16.024 31.0729 16.04 30.9449 16.048C30.8169 16.064 30.7089 16.072 30.6209 16.072ZM35.3787 16.072C34.7467 16.072 34.2587 15.892 33.9147 15.532C33.5787 15.172 33.4107 14.664 33.4107 14.008V10.6H32.2347V9.532H32.4747C32.7627 9.532 32.9907 9.444 33.1587 9.268C33.3267 9.092 33.4107 8.86 33.4107 8.572V8.044H34.5267V9.532H35.9787V10.6H34.5267V13.972C34.5267 14.188 34.5587 14.376 34.6227 14.536C34.6947 14.696 34.8107 14.824 34.9707 14.92C35.1307 15.008 35.3427 15.052 35.6067 15.052C35.6627 15.052 35.7307 15.048 35.8107 15.04C35.8987 15.032 35.9787 15.024 36.0507 15.016V16C35.9467 16.024 35.8307 16.04 35.7027 16.048C35.5747 16.064 35.4667 16.072 35.3787 16.072ZM37.5085 16V9.532H38.6245V16H37.5085ZM37.5085 8.5V7.06H38.6245V8.5H37.5085ZM40.3562 16V9.532H41.4482V10.792L41.2682 10.684C41.4282 10.276 41.6842 9.96 42.0362 9.736C42.3962 9.504 42.8162 9.388 43.2962 9.388C43.7602 9.388 44.1722 9.492 44.5322 9.7C44.9002 9.908 45.1882 10.196 45.3962 10.564C45.6122 10.932 45.7202 11.348 45.7202 11.812V16H44.5922V12.172C44.5922 11.812 44.5282 11.508 44.4002 11.26C44.2722 11.012 44.0882 10.82 43.8482 10.684C43.6162 10.54 43.3482 10.468 43.0442 10.468C42.7402 10.468 42.4682 10.54 42.2282 10.684C41.9962 10.82 41.8122 11.016 41.6762 11.272C41.5402 11.52 41.4722 11.82 41.4722 12.172V16H40.3562ZM50.4011 18.64C49.9451 18.64 49.5211 18.568 49.1291 18.424C48.7451 18.28 48.4131 18.08 48.1331 17.824C47.8611 17.576 47.6531 17.284 47.5091 16.948L48.5531 16.468C48.6651 16.772 48.8771 17.028 49.1891 17.236C49.5091 17.452 49.9091 17.56 50.3891 17.56C50.7571 17.56 51.0891 17.488 51.3851 17.344C51.6891 17.208 51.9291 17 52.1051 16.72C52.2811 16.448 52.3691 16.116 52.3691 15.724V14.272L52.5731 14.488C52.3491 14.928 52.0251 15.264 51.6011 15.496C51.1851 15.728 50.7251 15.844 50.2211 15.844C49.6131 15.844 49.0691 15.704 48.5891 15.424C48.1091 15.136 47.7331 14.748 47.4611 14.26C47.1891 13.764 47.0531 13.216 47.0531 12.616C47.0531 12.008 47.1891 11.46 47.4611 10.972C47.7331 10.484 48.1051 10.1 48.5771 9.82C49.0571 9.532 49.6011 9.388 50.2091 9.388C50.7131 9.388 51.1691 9.504 51.5771 9.736C51.9931 9.96 52.3251 10.272 52.5731 10.672L52.4051 10.972V9.532H53.4971V15.724C53.4971 16.284 53.3651 16.784 53.1011 17.224C52.8371 17.664 52.4691 18.008 51.9971 18.256C51.5331 18.512 51.0011 18.64 50.4011 18.64ZM50.3171 14.764C50.7011 14.764 51.0451 14.668 51.3491 14.476C51.6611 14.284 51.9091 14.028 52.0931 13.708C52.2771 13.38 52.3691 13.016 52.3691 12.616C52.3691 12.224 52.2771 11.864 52.0931 11.536C51.9091 11.208 51.6611 10.948 51.3491 10.756C51.0451 10.564 50.7011 10.468 50.3171 10.468C49.9251 10.468 49.5691 10.564 49.2491 10.756C48.9291 10.948 48.6771 11.208 48.4931 11.536C48.3171 11.856 48.2291 12.216 48.2291 12.616C48.2291 13.016 48.3171 13.38 48.4931 13.708C48.6771 14.028 48.9251 14.284 49.2371 14.476C49.5571 14.668 49.9171 14.764 50.3171 14.764ZM57.5433 16.144C56.8953 16.144 56.3313 15.984 55.8513 15.664C55.3713 15.344 55.0313 14.912 54.8313 14.368L55.7193 13.936C55.9033 14.32 56.1553 14.624 56.4753 14.848C56.7953 15.072 57.1513 15.184 57.5433 15.184C57.8953 15.184 58.1873 15.1 58.4193 14.932C58.6513 14.764 58.7673 14.544 58.7673 14.272C58.7673 14.08 58.7113 13.928 58.5993 13.816C58.4953 13.696 58.3673 13.604 58.2153 13.54C58.0633 13.468 57.9233 13.416 57.7953 13.384L56.8233 13.108C56.2393 12.94 55.8113 12.7 55.5393 12.388C55.2753 12.076 55.1433 11.712 55.1433 11.296C55.1433 10.912 55.2393 10.58 55.4313 10.3C55.6313 10.012 55.8993 9.788 56.2353 9.628C56.5793 9.468 56.9633 9.388 57.3873 9.388C57.9553 9.388 58.4633 9.532 58.9113 9.82C59.3673 10.108 59.6913 10.512 59.8833 11.032L58.9713 11.452C58.8273 11.116 58.6113 10.852 58.3233 10.66C58.0353 10.46 57.7113 10.36 57.3513 10.36C57.0233 10.36 56.7633 10.444 56.5713 10.612C56.3793 10.772 56.2833 10.976 56.2833 11.224C56.2833 11.408 56.3313 11.56 56.4273 11.68C56.5233 11.792 56.6393 11.88 56.7753 11.944C56.9113 12 57.0433 12.048 57.1713 12.088L58.2273 12.4C58.7553 12.552 59.1633 12.788 59.4513 13.108C59.7473 13.428 59.8953 13.812 59.8953 14.26C59.8953 14.62 59.7953 14.944 59.5953 15.232C59.3953 15.52 59.1193 15.744 58.7673 15.904C58.4153 16.064 58.0073 16.144 57.5433 16.144Z" fill="white"/>
</g>
<defs>
<filter id="filter0_i_30788_66813" x="0" y="0" width="73" height="24" filterUnits="userSpaceOnUse" color-interpolation-filters="sRGB">
<feFlood flood-opacity="0" result="BackgroundImageFix"/>
<feBlend mode="normal" in="SourceGraphic" in2="BackgroundImageFix" result="shape"/>
<feColorMatrix in="SourceAlpha" type="matrix" values="0 0 0 0 0 0 0 0 0 0 0 0 0 0 0 0 0 0 127 0" result="hardAlpha"/>
<feOffset dy="1"/>
<feComposite in2="hardAlpha" operator="arithmetic" k2="-1" k3="1"/>
<feColorMatrix type="matrix" values="0 0 0 0 1 0 0 0 0 1 0 0 0 0 1 0 0 0 0.08 0"/>
<feBlend mode="normal" in2="shape" result="effect1_innerShadow_30788_66813"/>
</filter>
<clipPath id="bgblur_0_30788_66813_clip_path" transform="translate(0 0)"><rect width="73" height="24" rx="12"/>
</clipPath></defs>
</svg>
