<svg width="71" height="24" viewBox="0 0 71 24" fill="none" xmlns="http://www.w3.org/2000/svg">
<foreignObject x="0" y="0" width="71" height="24"><div xmlns="http://www.w3.org/1999/xhtml" style="backdrop-filter:blur(32px);clip-path:url(#bgblur_0_30788_66772_clip_path);height:100%;width:100%"></div></foreignObject><g filter="url(#filter0_i_30788_66772)" data-figma-bg-blur-radius="64">
<rect width="71" height="24" rx="12" fill="#121212"/>
<rect x="0.5" y="0.5" width="70" height="23" rx="11.5" stroke="#121212"/>
<path d="M12.996 16V7.06H14.172V14.92H18.096V16H12.996ZM22.3579 16.144C21.7339 16.144 21.1699 16 20.6659 15.712C20.1619 15.416 19.7619 15.012 19.4659 14.5C19.1699 13.988 19.0219 13.408 19.0219 12.76C19.0219 12.112 19.1659 11.536 19.4539 11.032C19.7499 10.528 20.1499 10.128 20.6539 9.832C21.1579 9.536 21.7259 9.388 22.3579 9.388C22.9819 9.388 23.5459 9.536 24.0499 9.832C24.5539 10.12 24.9499 10.516 25.2379 11.02C25.5339 11.524 25.6819 12.104 25.6819 12.76C25.6819 13.416 25.5299 14 25.2259 14.512C24.9219 15.016 24.5179 15.416 24.0139 15.712C23.5179 16 22.9659 16.144 22.3579 16.144ZM22.3579 15.064C22.7579 15.064 23.1179 14.964 23.4379 14.764C23.7659 14.564 24.0219 14.288 24.2059 13.936C24.3979 13.584 24.4939 13.192 24.4939 12.76C24.4939 12.32 24.3979 11.932 24.2059 11.596C24.0219 11.252 23.7659 10.98 23.4379 10.78C23.1179 10.572 22.7579 10.468 22.3579 10.468C21.9499 10.468 21.5819 10.572 21.2539 10.78C20.9339 10.98 20.6779 11.252 20.4859 11.596C20.2939 11.932 20.1979 12.32 20.1979 12.76C20.1979 13.192 20.2939 13.584 20.4859 13.936C20.6779 14.288 20.9339 14.564 21.2539 14.764C21.5819 14.964 21.9499 15.064 22.3579 15.064ZM29.0334 16.144C28.6094 16.144 28.2334 16.068 27.9054 15.916C27.5854 15.756 27.3334 15.54 27.1494 15.268C26.9654 14.988 26.8734 14.668 26.8734 14.308C26.8734 13.964 26.9454 13.656 27.0894 13.384C27.2414 13.104 27.4734 12.868 27.7854 12.676C28.1054 12.484 28.5054 12.348 28.9854 12.268L31.3854 11.872V12.808L29.2374 13.168C28.8214 13.24 28.5174 13.372 28.3254 13.564C28.1414 13.756 28.0494 13.992 28.0494 14.272C28.0494 14.536 28.1534 14.756 28.3614 14.932C28.5774 15.108 28.8454 15.196 29.1654 15.196C29.5734 15.196 29.9254 15.112 30.2214 14.944C30.5254 14.768 30.7614 14.532 30.9294 14.236C31.1054 13.94 31.1934 13.612 31.1934 13.252V11.608C31.1934 11.256 31.0614 10.972 30.7974 10.756C30.5414 10.532 30.2014 10.42 29.7774 10.42C29.4094 10.42 29.0814 10.516 28.7934 10.708C28.5134 10.892 28.3054 11.14 28.1694 11.452L27.1974 10.948C27.3174 10.652 27.5094 10.388 27.7734 10.156C28.0374 9.916 28.3454 9.728 28.6974 9.592C29.0494 9.456 29.4174 9.388 29.8014 9.388C30.2974 9.388 30.7334 9.484 31.1094 9.676C31.4854 9.86 31.7774 10.12 31.9854 10.456C32.2014 10.784 32.3094 11.168 32.3094 11.608V16H31.2174V14.776L31.4214 14.848C31.2854 15.104 31.1014 15.328 30.8694 15.52C30.6374 15.712 30.3654 15.864 30.0534 15.976C29.7414 16.088 29.4014 16.144 29.0334 16.144ZM36.9798 16.144C36.3718 16.144 35.8238 15.996 35.3358 15.7C34.8558 15.404 34.4758 15 34.1958 14.488C33.9158 13.976 33.7758 13.404 33.7758 12.772C33.7758 12.124 33.9158 11.548 34.1958 11.044C34.4758 10.532 34.8558 10.128 35.3358 9.832C35.8238 9.536 36.3718 9.388 36.9798 9.388C37.5158 9.388 37.9918 9.504 38.4078 9.736C38.8238 9.96 39.1518 10.264 39.3918 10.648L39.2118 10.924V6.916H40.3398V16H39.2478V14.62L39.3918 14.812C39.1678 15.236 38.8398 15.564 38.4078 15.796C37.9838 16.028 37.5078 16.144 36.9798 16.144ZM37.0758 15.064C37.4838 15.064 37.8478 14.964 38.1678 14.764C38.4878 14.564 38.7398 14.292 38.9238 13.948C39.1158 13.596 39.2118 13.204 39.2118 12.772C39.2118 12.332 39.1158 11.94 38.9238 11.596C38.7398 11.244 38.4878 10.968 38.1678 10.768C37.8478 10.568 37.4838 10.468 37.0758 10.468C36.6758 10.468 36.3118 10.572 35.9838 10.78C35.6638 10.98 35.4118 11.252 35.2278 11.596C35.0438 11.932 34.9518 12.324 34.9518 12.772C34.9518 13.204 35.0438 13.596 35.2278 13.948C35.4118 14.292 35.6638 14.564 35.9838 14.764C36.3038 14.964 36.6678 15.064 37.0758 15.064ZM42.0671 16V9.532H43.1831V16H42.0671ZM42.0671 8.5V7.06H43.1831V8.5H42.0671ZM44.9148 16V9.532H46.0068V10.792L45.8268 10.684C45.9868 10.276 46.2428 9.96 46.5948 9.736C46.9548 9.504 47.3748 9.388 47.8548 9.388C48.3188 9.388 48.7308 9.492 49.0908 9.7C49.4588 9.908 49.7468 10.196 49.9548 10.564C50.1708 10.932 50.2788 11.348 50.2788 11.812V16H49.1508V12.172C49.1508 11.812 49.0868 11.508 48.9588 11.26C48.8308 11.012 48.6468 10.82 48.4068 10.684C48.1748 10.54 47.9068 10.468 47.6028 10.468C47.2988 10.468 47.0268 10.54 46.7868 10.684C46.5548 10.82 46.3708 11.016 46.2348 11.272C46.0988 11.52 46.0308 11.82 46.0308 12.172V16H44.9148ZM54.9597 18.64C54.5037 18.64 54.0797 18.568 53.6877 18.424C53.3037 18.28 52.9717 18.08 52.6917 17.824C52.4197 17.576 52.2117 17.284 52.0677 16.948L53.1117 16.468C53.2237 16.772 53.4357 17.028 53.7477 17.236C54.0677 17.452 54.4677 17.56 54.9477 17.56C55.3157 17.56 55.6477 17.488 55.9437 17.344C56.2477 17.208 56.4877 17 56.6637 16.72C56.8397 16.448 56.9277 16.116 56.9277 15.724V14.272L57.1317 14.488C56.9077 14.928 56.5837 15.264 56.1597 15.496C55.7437 15.728 55.2837 15.844 54.7797 15.844C54.1717 15.844 53.6277 15.704 53.1477 15.424C52.6677 15.136 52.2917 14.748 52.0197 14.26C51.7477 13.764 51.6117 13.216 51.6117 12.616C51.6117 12.008 51.7477 11.46 52.0197 10.972C52.2917 10.484 52.6637 10.1 53.1357 9.82C53.6157 9.532 54.1597 9.388 54.7677 9.388C55.2717 9.388 55.7277 9.504 56.1357 9.736C56.5517 9.96 56.8837 10.272 57.1317 10.672L56.9637 10.972V9.532H58.0557V15.724C58.0557 16.284 57.9237 16.784 57.6597 17.224C57.3957 17.664 57.0277 18.008 56.5557 18.256C56.0917 18.512 55.5597 18.64 54.9597 18.64ZM54.8757 14.764C55.2597 14.764 55.6037 14.668 55.9077 14.476C56.2197 14.284 56.4677 14.028 56.6517 13.708C56.8357 13.38 56.9277 13.016 56.9277 12.616C56.9277 12.224 56.8357 11.864 56.6517 11.536C56.4677 11.208 56.2197 10.948 55.9077 10.756C55.6037 10.564 55.2597 10.468 54.8757 10.468C54.4837 10.468 54.1277 10.564 53.8077 10.756C53.4877 10.948 53.2357 11.208 53.0517 11.536C52.8757 11.856 52.7877 12.216 52.7877 12.616C52.7877 13.016 52.8757 13.38 53.0517 13.708C53.2357 14.028 53.4837 14.284 53.7957 14.476C54.1157 14.668 54.4757 14.764 54.8757 14.764Z" fill="white"/>
</g>
<defs>
<filter id="filter0_i_30788_66772" x="0" y="0" width="71" height="24" filterUnits="userSpaceOnUse" color-interpolation-filters="sRGB">
<feFlood flood-opacity="0" result="BackgroundImageFix"/>
<feBlend mode="normal" in="SourceGraphic" in2="BackgroundImageFix" result="shape"/>
<feColorMatrix in="SourceAlpha" type="matrix" values="0 0 0 0 0 0 0 0 0 0 0 0 0 0 0 0 0 0 127 0" result="hardAlpha"/>
<feOffset dy="1"/>
<feComposite in2="hardAlpha" operator="arithmetic" k2="-1" k3="1"/>
<feColorMatrix type="matrix" values="0 0 0 0 1 0 0 0 0 1 0 0 0 0 1 0 0 0 0.08 0"/>
<feBlend mode="normal" in2="shape" result="effect1_innerShadow_30788_66772"/>
</filter>
<clipPath id="bgblur_0_30788_66772_clip_path" transform="translate(0 0)"><rect width="71" height="24" rx="12"/>
</clipPath></defs>
</svg>
