<svg width="118" height="24" viewBox="0 0 118 24" fill="none" xmlns="http://www.w3.org/2000/svg">
<foreignObject x="0" y="0" width="118" height="24"><div xmlns="http://www.w3.org/1999/xhtml" style="backdrop-filter:blur(32px);clip-path:url(#bgblur_0_30788_66801_clip_path);height:100%;width:100%"></div></foreignObject><g filter="url(#filter0_i_30788_66801)" data-figma-bg-blur-radius="64">
<rect width="118" height="24" rx="12" fill="#121212"/>
<rect x="0.5" y="0.5" width="117" height="23" rx="11.5" stroke="#121212"/>
<path d="M12.996 16V7.06H15.924C16.828 7.06 17.616 7.244 18.288 7.612C18.96 7.98 19.48 8.5 19.848 9.172C20.216 9.836 20.4 10.62 20.4 11.524C20.4 12.42 20.216 13.204 19.848 13.876C19.48 14.548 18.96 15.072 18.288 15.448C17.616 15.816 16.828 16 15.924 16H12.996ZM14.172 14.92H15.936C16.6 14.92 17.172 14.78 17.652 14.5C18.14 14.22 18.516 13.828 18.78 13.324C19.044 12.812 19.176 12.212 19.176 11.524C19.176 10.828 19.04 10.228 18.768 9.724C18.504 9.22 18.128 8.832 17.64 8.56C17.16 8.28 16.592 8.14 15.936 8.14H14.172V14.92ZM21.7585 16V9.532H22.8505V10.72L22.7305 10.552C22.8825 10.184 23.1145 9.912 23.4265 9.736C23.7385 9.552 24.1185 9.46 24.5665 9.46H24.9625V10.516H24.3985C23.9425 10.516 23.5745 10.66 23.2945 10.948C23.0145 11.228 22.8745 11.628 22.8745 12.148V16H21.7585ZM27.8498 16.144C27.4258 16.144 27.0498 16.068 26.7218 15.916C26.4018 15.756 26.1498 15.54 25.9658 15.268C25.7818 14.988 25.6898 14.668 25.6898 14.308C25.6898 13.964 25.7618 13.656 25.9058 13.384C26.0578 13.104 26.2898 12.868 26.6018 12.676C26.9218 12.484 27.3218 12.348 27.8018 12.268L30.2018 11.872V12.808L28.0538 13.168C27.6378 13.24 27.3338 13.372 27.1418 13.564C26.9578 13.756 26.8658 13.992 26.8658 14.272C26.8658 14.536 26.9698 14.756 27.1778 14.932C27.3938 15.108 27.6618 15.196 27.9818 15.196C28.3898 15.196 28.7418 15.112 29.0378 14.944C29.3418 14.768 29.5778 14.532 29.7458 14.236C29.9218 13.94 30.0098 13.612 30.0098 13.252V11.608C30.0098 11.256 29.8778 10.972 29.6138 10.756C29.3578 10.532 29.0178 10.42 28.5938 10.42C28.2258 10.42 27.8978 10.516 27.6098 10.708C27.3298 10.892 27.1218 11.14 26.9858 11.452L26.0138 10.948C26.1338 10.652 26.3258 10.388 26.5898 10.156C26.8538 9.916 27.1618 9.728 27.5138 9.592C27.8658 9.456 28.2338 9.388 28.6178 9.388C29.1138 9.388 29.5498 9.484 29.9258 9.676C30.3018 9.86 30.5938 10.12 30.8018 10.456C31.0178 10.784 31.1258 11.168 31.1258 11.608V16H30.0338V14.776L30.2378 14.848C30.1018 15.104 29.9178 15.328 29.6858 15.52C29.4538 15.712 29.1818 15.864 28.8698 15.976C28.5578 16.088 28.2178 16.144 27.8498 16.144ZM35.9402 18.64C35.4842 18.64 35.0602 18.568 34.6682 18.424C34.2842 18.28 33.9522 18.08 33.6722 17.824C33.4002 17.576 33.1922 17.284 33.0482 16.948L34.0922 16.468C34.2042 16.772 34.4162 17.028 34.7282 17.236C35.0482 17.452 35.4482 17.56 35.9282 17.56C36.2962 17.56 36.6282 17.488 36.9242 17.344C37.2282 17.208 37.4682 17 37.6442 16.72C37.8202 16.448 37.9082 16.116 37.9082 15.724V14.272L38.1122 14.488C37.8882 14.928 37.5642 15.264 37.1402 15.496C36.7242 15.728 36.2642 15.844 35.7602 15.844C35.1522 15.844 34.6082 15.704 34.1282 15.424C33.6482 15.136 33.2722 14.748 33.0002 14.26C32.7282 13.764 32.5922 13.216 32.5922 12.616C32.5922 12.008 32.7282 11.46 33.0002 10.972C33.2722 10.484 33.6442 10.1 34.1162 9.82C34.5962 9.532 35.1402 9.388 35.7482 9.388C36.2522 9.388 36.7082 9.504 37.1162 9.736C37.5322 9.96 37.8642 10.272 38.1122 10.672L37.9442 10.972V9.532H39.0362V15.724C39.0362 16.284 38.9042 16.784 38.6402 17.224C38.3762 17.664 38.0082 18.008 37.5362 18.256C37.0722 18.512 36.5402 18.64 35.9402 18.64ZM35.8562 14.764C36.2402 14.764 36.5842 14.668 36.8882 14.476C37.2002 14.284 37.4482 14.028 37.6322 13.708C37.8162 13.38 37.9082 13.016 37.9082 12.616C37.9082 12.224 37.8162 11.864 37.6322 11.536C37.4482 11.208 37.2002 10.948 36.8882 10.756C36.5842 10.564 36.2402 10.468 35.8562 10.468C35.4642 10.468 35.1082 10.564 34.7882 10.756C34.4682 10.948 34.2162 11.208 34.0322 11.536C33.8562 11.856 33.7682 12.216 33.7682 12.616C33.7682 13.016 33.8562 13.38 34.0322 13.708C34.2162 14.028 34.4642 14.284 34.7762 14.476C35.0962 14.668 35.4562 14.764 35.8562 14.764ZM40.8503 17.02V16H46.3943V17.02H40.8503ZM48.3398 16V7.06H49.5158V11.044H53.9918V7.06H55.1798V16H53.9918V12.124H49.5158V16H48.3398ZM60.104 16.144C59.48 16.144 58.916 16 58.412 15.712C57.908 15.416 57.508 15.012 57.212 14.5C56.916 13.988 56.768 13.408 56.768 12.76C56.768 12.112 56.912 11.536 57.2 11.032C57.496 10.528 57.896 10.128 58.4 9.832C58.904 9.536 59.472 9.388 60.104 9.388C60.728 9.388 61.292 9.536 61.796 9.832C62.3 10.12 62.696 10.516 62.984 11.02C63.28 11.524 63.428 12.104 63.428 12.76C63.428 13.416 63.276 14 62.972 14.512C62.668 15.016 62.264 15.416 61.76 15.712C61.264 16 60.712 16.144 60.104 16.144ZM60.104 15.064C60.504 15.064 60.864 14.964 61.184 14.764C61.512 14.564 61.768 14.288 61.952 13.936C62.144 13.584 62.24 13.192 62.24 12.76C62.24 12.32 62.144 11.932 61.952 11.596C61.768 11.252 61.512 10.98 61.184 10.78C60.864 10.572 60.504 10.468 60.104 10.468C59.696 10.468 59.328 10.572 59 10.78C58.68 10.98 58.424 11.252 58.232 11.596C58.04 11.932 57.944 12.32 57.944 12.76C57.944 13.192 58.04 13.584 58.232 13.936C58.424 14.288 58.68 14.564 59 14.764C59.328 14.964 59.696 15.064 60.104 15.064ZM64.8835 16V9.532H65.9755V10.72L65.8555 10.552C66.0075 10.184 66.2395 9.912 66.5515 9.736C66.8635 9.552 67.2435 9.46 67.6915 9.46H68.0875V10.516H67.5235C67.0675 10.516 66.6995 10.66 66.4195 10.948C66.1395 11.228 65.9995 11.628 65.9995 12.148V16H64.8835ZM69.0788 16V9.532H70.1948V16H69.0788ZM69.0788 8.5V7.06H70.1948V8.5H69.0788ZM71.2905 16V15.052L75.1425 10.192L75.3345 10.6H71.4825V9.532H76.3305V10.48L72.5145 15.352L72.3225 14.932H76.3545V16H71.2905ZM80.518 16.144C79.894 16.144 79.33 16 78.826 15.712C78.322 15.416 77.922 15.012 77.626 14.5C77.33 13.988 77.182 13.408 77.182 12.76C77.182 12.112 77.326 11.536 77.614 11.032C77.91 10.528 78.31 10.128 78.814 9.832C79.318 9.536 79.886 9.388 80.518 9.388C81.142 9.388 81.706 9.536 82.21 9.832C82.714 10.12 83.11 10.516 83.398 11.02C83.694 11.524 83.842 12.104 83.842 12.76C83.842 13.416 83.69 14 83.386 14.512C83.082 15.016 82.678 15.416 82.174 15.712C81.678 16 81.126 16.144 80.518 16.144ZM80.518 15.064C80.918 15.064 81.278 14.964 81.598 14.764C81.926 14.564 82.182 14.288 82.366 13.936C82.558 13.584 82.654 13.192 82.654 12.76C82.654 12.32 82.558 11.932 82.366 11.596C82.182 11.252 81.926 10.98 81.598 10.78C81.278 10.572 80.918 10.468 80.518 10.468C80.11 10.468 79.742 10.572 79.414 10.78C79.094 10.98 78.838 11.252 78.646 11.596C78.454 11.932 78.358 12.32 78.358 12.76C78.358 13.192 78.454 13.584 78.646 13.936C78.838 14.288 79.094 14.564 79.414 14.764C79.742 14.964 80.11 15.064 80.518 15.064ZM85.2976 16V9.532H86.3896V10.792L86.2096 10.684C86.3696 10.276 86.6256 9.96 86.9776 9.736C87.3376 9.504 87.7576 9.388 88.2376 9.388C88.7016 9.388 89.1136 9.492 89.4736 9.7C89.8416 9.908 90.1296 10.196 90.3376 10.564C90.5536 10.932 90.6616 11.348 90.6616 11.812V16H89.5336V12.172C89.5336 11.812 89.4696 11.508 89.3416 11.26C89.2136 11.012 89.0296 10.82 88.7896 10.684C88.5576 10.54 88.2896 10.468 87.9856 10.468C87.6816 10.468 87.4096 10.54 87.1696 10.684C86.9376 10.82 86.7536 11.016 86.6176 11.272C86.4816 11.52 86.4136 11.82 86.4136 12.172V16H85.2976ZM94.8865 16.072C94.2545 16.072 93.7665 15.892 93.4225 15.532C93.0865 15.172 92.9185 14.664 92.9185 14.008V10.6H91.7425V9.532H91.9825C92.2705 9.532 92.4985 9.444 92.6665 9.268C92.8345 9.092 92.9185 8.86 92.9185 8.572V8.044H94.0345V9.532H95.4865V10.6H94.0345V13.972C94.0345 14.188 94.0665 14.376 94.1305 14.536C94.2025 14.696 94.3185 14.824 94.4785 14.92C94.6385 15.008 94.8505 15.052 95.1145 15.052C95.1705 15.052 95.2385 15.048 95.3185 15.04C95.4065 15.032 95.4865 15.024 95.5585 15.016V16C95.4545 16.024 95.3385 16.04 95.2105 16.048C95.0825 16.064 94.9745 16.072 94.8865 16.072ZM98.8303 16.144C98.4063 16.144 98.0303 16.068 97.7023 15.916C97.3823 15.756 97.1303 15.54 96.9463 15.268C96.7623 14.988 96.6703 14.668 96.6703 14.308C96.6703 13.964 96.7423 13.656 96.8863 13.384C97.0383 13.104 97.2703 12.868 97.5823 12.676C97.9023 12.484 98.3023 12.348 98.7823 12.268L101.182 11.872V12.808L99.0343 13.168C98.6183 13.24 98.3143 13.372 98.1223 13.564C97.9383 13.756 97.8463 13.992 97.8463 14.272C97.8463 14.536 97.9503 14.756 98.1583 14.932C98.3743 15.108 98.6423 15.196 98.9623 15.196C99.3703 15.196 99.7223 15.112 100.018 14.944C100.322 14.768 100.558 14.532 100.726 14.236C100.902 13.94 100.99 13.612 100.99 13.252V11.608C100.99 11.256 100.858 10.972 100.594 10.756C100.338 10.532 99.9983 10.42 99.5743 10.42C99.2063 10.42 98.8783 10.516 98.5903 10.708C98.3103 10.892 98.1023 11.14 97.9663 11.452L96.9943 10.948C97.1143 10.652 97.3063 10.388 97.5703 10.156C97.8343 9.916 98.1423 9.728 98.4943 9.592C98.8463 9.456 99.2143 9.388 99.5983 9.388C100.094 9.388 100.53 9.484 100.906 9.676C101.282 9.86 101.574 10.12 101.782 10.456C101.998 10.784 102.106 11.168 102.106 11.608V16H101.014V14.776L101.218 14.848C101.082 15.104 100.898 15.328 100.666 15.52C100.434 15.712 100.162 15.864 99.8503 15.976C99.5383 16.088 99.1983 16.144 98.8303 16.144ZM103.837 16V6.916H104.953V16H103.837Z" fill="white"/>
</g>
<defs>
<filter id="filter0_i_30788_66801" x="0" y="0" width="118" height="24" filterUnits="userSpaceOnUse" color-interpolation-filters="sRGB">
<feFlood flood-opacity="0" result="BackgroundImageFix"/>
<feBlend mode="normal" in="SourceGraphic" in2="BackgroundImageFix" result="shape"/>
<feColorMatrix in="SourceAlpha" type="matrix" values="0 0 0 0 0 0 0 0 0 0 0 0 0 0 0 0 0 0 127 0" result="hardAlpha"/>
<feOffset dy="1"/>
<feComposite in2="hardAlpha" operator="arithmetic" k2="-1" k3="1"/>
<feColorMatrix type="matrix" values="0 0 0 0 1 0 0 0 0 1 0 0 0 0 1 0 0 0 0.08 0"/>
<feBlend mode="normal" in2="shape" result="effect1_innerShadow_30788_66801"/>
</filter>
<clipPath id="bgblur_0_30788_66801_clip_path" transform="translate(0 0)"><rect width="118" height="24" rx="12"/>
</clipPath></defs>
</svg>
