<svg width="62" height="24" viewBox="0 0 62 24" fill="none" xmlns="http://www.w3.org/2000/svg">
<foreignObject x="0" y="0" width="62" height="24"><div xmlns="http://www.w3.org/1999/xhtml" style="backdrop-filter:blur(32px);clip-path:url(#bgblur_0_30788_66808_clip_path);height:100%;width:100%"></div></foreignObject><g filter="url(#filter0_i_30788_66808)" data-figma-bg-blur-radius="64">
<rect width="62" height="24" rx="12" fill="#121212"/>
<rect x="0.5" y="0.5" width="61" height="23" rx="11.5" stroke="#121212"/>
<path d="M12.996 16V7.06H14.172V14.92H18.096V16H12.996ZM19.2859 16V9.532H20.4019V16H19.2859ZM19.2859 8.5V7.06H20.4019V8.5H19.2859ZM22.1335 16V9.532H23.2255V10.792L23.0455 10.684C23.2055 10.276 23.4615 9.96 23.8135 9.736C24.1735 9.504 24.5935 9.388 25.0735 9.388C25.5375 9.388 25.9495 9.492 26.3095 9.7C26.6775 9.908 26.9655 10.196 27.1735 10.564C27.3895 10.932 27.4975 11.348 27.4975 11.812V16H26.3695V12.172C26.3695 11.812 26.3055 11.508 26.1775 11.26C26.0495 11.012 25.8655 10.82 25.6255 10.684C25.3935 10.54 25.1255 10.468 24.8215 10.468C24.5175 10.468 24.2455 10.54 24.0055 10.684C23.7735 10.82 23.5895 11.016 23.4535 11.272C23.3175 11.52 23.2495 11.82 23.2495 12.172V16H22.1335ZM32.0705 16.144C31.4465 16.144 30.8905 15.996 30.4025 15.7C29.9145 15.404 29.5305 15 29.2505 14.488C28.9705 13.968 28.8305 13.388 28.8305 12.748C28.8305 12.1 28.9665 11.524 29.2385 11.02C29.5185 10.516 29.8945 10.12 30.3665 9.832C30.8465 9.536 31.3825 9.388 31.9745 9.388C32.4545 9.388 32.8785 9.476 33.2465 9.652C33.6225 9.82 33.9385 10.052 34.1945 10.348C34.4585 10.636 34.6585 10.968 34.7945 11.344C34.9385 11.712 35.0105 12.096 35.0105 12.496C35.0105 12.584 35.0025 12.684 34.9865 12.796C34.9785 12.9 34.9665 13 34.9505 13.096H29.6465V12.136H34.3025L33.7745 12.568C33.8465 12.152 33.8065 11.78 33.6545 11.452C33.5025 11.124 33.2785 10.864 32.9825 10.672C32.6865 10.48 32.3505 10.384 31.9745 10.384C31.5985 10.384 31.2545 10.48 30.9425 10.672C30.6305 10.864 30.3865 11.14 30.2105 11.5C30.0425 11.852 29.9745 12.272 30.0065 12.76C29.9745 13.232 30.0465 13.648 30.2225 14.008C30.4065 14.36 30.6625 14.636 30.9905 14.836C31.3265 15.028 31.6905 15.124 32.0825 15.124C32.5145 15.124 32.8785 15.024 33.1745 14.824C33.4705 14.624 33.7105 14.368 33.8945 14.056L34.8305 14.536C34.7025 14.832 34.5025 15.104 34.2305 15.352C33.9665 15.592 33.6505 15.784 33.2825 15.928C32.9225 16.072 32.5185 16.144 32.0705 16.144ZM36.5496 17.02V16H42.0936V17.02H36.5496ZM44.039 16V7.06H45.215V14.92H49.139V16H44.039Z" fill="white"/>
</g>
<defs>
<filter id="filter0_i_30788_66808" x="0" y="0" width="62" height="24" filterUnits="userSpaceOnUse" color-interpolation-filters="sRGB">
<feFlood flood-opacity="0" result="BackgroundImageFix"/>
<feBlend mode="normal" in="SourceGraphic" in2="BackgroundImageFix" result="shape"/>
<feColorMatrix in="SourceAlpha" type="matrix" values="0 0 0 0 0 0 0 0 0 0 0 0 0 0 0 0 0 0 127 0" result="hardAlpha"/>
<feOffset dy="1"/>
<feComposite in2="hardAlpha" operator="arithmetic" k2="-1" k3="1"/>
<feColorMatrix type="matrix" values="0 0 0 0 1 0 0 0 0 1 0 0 0 0 1 0 0 0 0.08 0"/>
<feBlend mode="normal" in2="shape" result="effect1_innerShadow_30788_66808"/>
</filter>
<clipPath id="bgblur_0_30788_66808_clip_path" transform="translate(0 0)"><rect width="62" height="24" rx="12"/>
</clipPath></defs>
</svg>
