<svg width="158" height="24" viewBox="0 0 158 24" fill="none" xmlns="http://www.w3.org/2000/svg">
<foreignObject x="0" y="0" width="158" height="24"><div xmlns="http://www.w3.org/1999/xhtml" style="backdrop-filter:blur(32px);clip-path:url(#bgblur_0_30788_66796_clip_path);height:100%;width:100%"></div></foreignObject><g filter="url(#filter0_i_30788_66796)" data-figma-bg-blur-radius="64">
<rect width="158" height="24" rx="12" fill="#121212"/>
<rect x="0.5" y="0.5" width="157" height="23" rx="11.5" stroke="#121212"/>
<path d="M17.112 16.144C16.48 16.144 15.896 16.032 15.36 15.808C14.832 15.576 14.368 15.252 13.968 14.836C13.576 14.42 13.272 13.932 13.056 13.372C12.84 12.812 12.732 12.2 12.732 11.536C12.732 10.864 12.84 10.248 13.056 9.688C13.272 9.128 13.576 8.64 13.968 8.224C14.36 7.808 14.824 7.488 15.36 7.264C15.896 7.032 16.48 6.916 17.112 6.916C17.728 6.916 18.28 7.024 18.768 7.24C19.264 7.456 19.68 7.736 20.016 8.08C20.36 8.424 20.604 8.792 20.748 9.184L19.668 9.676C19.46 9.18 19.136 8.78 18.696 8.476C18.256 8.164 17.728 8.008 17.112 8.008C16.488 8.008 15.932 8.156 15.444 8.452C14.964 8.748 14.588 9.16 14.316 9.688C14.044 10.216 13.908 10.832 13.908 11.536C13.908 12.232 14.044 12.844 14.316 13.372C14.588 13.9 14.964 14.312 15.444 14.608C15.932 14.904 16.488 15.052 17.112 15.052C17.728 15.052 18.256 14.9 18.696 14.596C19.136 14.284 19.46 13.88 19.668 13.384L20.748 13.876C20.604 14.268 20.36 14.636 20.016 14.98C19.68 15.324 19.264 15.604 18.768 15.82C18.28 16.036 17.728 16.144 17.112 16.144ZM22.2156 16V6.916H23.3316V10.792L23.1276 10.684C23.2876 10.276 23.5436 9.96 23.8956 9.736C24.2556 9.504 24.6756 9.388 25.1556 9.388C25.6196 9.388 26.0316 9.492 26.3916 9.7C26.7596 9.908 27.0476 10.196 27.2556 10.564C27.4716 10.932 27.5796 11.348 27.5796 11.812V16H26.4516V12.172C26.4516 11.812 26.3836 11.508 26.2476 11.26C26.1196 11.012 25.9396 10.82 25.7076 10.684C25.4756 10.54 25.2076 10.468 24.9036 10.468C24.6076 10.468 24.3396 10.54 24.0996 10.684C23.8596 10.82 23.6716 11.016 23.5356 11.272C23.3996 11.52 23.3316 11.82 23.3316 12.172V16H22.2156ZM32.1525 16.144C31.5285 16.144 30.9725 15.996 30.4845 15.7C29.9965 15.404 29.6125 15 29.3325 14.488C29.0525 13.968 28.9125 13.388 28.9125 12.748C28.9125 12.1 29.0485 11.524 29.3205 11.02C29.6005 10.516 29.9765 10.12 30.4485 9.832C30.9285 9.536 31.4645 9.388 32.0565 9.388C32.5365 9.388 32.9605 9.476 33.3285 9.652C33.7045 9.82 34.0205 10.052 34.2765 10.348C34.5405 10.636 34.7405 10.968 34.8765 11.344C35.0205 11.712 35.0925 12.096 35.0925 12.496C35.0925 12.584 35.0845 12.684 35.0685 12.796C35.0605 12.9 35.0485 13 35.0325 13.096H29.7285V12.136H34.3845L33.8565 12.568C33.9285 12.152 33.8885 11.78 33.7365 11.452C33.5845 11.124 33.3605 10.864 33.0645 10.672C32.7685 10.48 32.4325 10.384 32.0565 10.384C31.6805 10.384 31.3365 10.48 31.0245 10.672C30.7125 10.864 30.4685 11.14 30.2925 11.5C30.1245 11.852 30.0565 12.272 30.0885 12.76C30.0565 13.232 30.1285 13.648 30.3045 14.008C30.4885 14.36 30.7445 14.636 31.0725 14.836C31.4085 15.028 31.7725 15.124 32.1645 15.124C32.5965 15.124 32.9605 15.024 33.2565 14.824C33.5525 14.624 33.7925 14.368 33.9765 14.056L34.9125 14.536C34.7845 14.832 34.5845 15.104 34.3125 15.352C34.0485 15.592 33.7325 15.784 33.3645 15.928C33.0045 16.072 32.6005 16.144 32.1525 16.144ZM39.5476 16.144C38.9156 16.144 38.3516 15.996 37.8556 15.7C37.3676 15.404 36.9836 15 36.7036 14.488C36.4236 13.976 36.2836 13.4 36.2836 12.76C36.2836 12.112 36.4236 11.536 36.7036 11.032C36.9836 10.528 37.3676 10.128 37.8556 9.832C38.3516 9.536 38.9156 9.388 39.5476 9.388C39.9716 9.388 40.3676 9.464 40.7356 9.616C41.1036 9.768 41.4276 9.972 41.7076 10.228C41.9876 10.484 42.1916 10.784 42.3196 11.128L41.3236 11.608C41.1716 11.272 40.9396 11 40.6276 10.792C40.3156 10.576 39.9556 10.468 39.5476 10.468C39.1556 10.468 38.7996 10.568 38.4796 10.768C38.1676 10.968 37.9196 11.24 37.7356 11.584C37.5516 11.928 37.4596 12.324 37.4596 12.772C37.4596 13.204 37.5516 13.596 37.7356 13.948C37.9196 14.292 38.1676 14.564 38.4796 14.764C38.7996 14.964 39.1556 15.064 39.5476 15.064C39.9556 15.064 40.3156 14.96 40.6276 14.752C40.9396 14.536 41.1716 14.252 41.3236 13.9L42.3196 14.404C42.1916 14.74 41.9876 15.04 41.7076 15.304C41.4276 15.56 41.1036 15.764 40.7356 15.916C40.3676 16.068 39.9716 16.144 39.5476 16.144ZM43.7781 16V6.916H44.8941V13.144L44.4381 13.036L47.8701 9.532H49.2981L46.8141 12.136L49.4661 16H48.1461L45.7221 12.496L46.4181 12.46L44.5341 14.428L44.8941 13.612V16H43.7781ZM53.8175 16.144C53.2975 16.144 52.8215 16.028 52.3895 15.796C51.9655 15.564 51.6375 15.236 51.4055 14.812L51.5615 14.62V16H50.4695V6.916H51.5855V10.924L51.4175 10.648C51.6575 10.264 51.9855 9.96 52.4015 9.736C52.8175 9.504 53.2935 9.388 53.8295 9.388C54.4375 9.388 54.9815 9.536 55.4615 9.832C55.9495 10.128 56.3335 10.532 56.6135 11.044C56.8935 11.548 57.0335 12.124 57.0335 12.772C57.0335 13.404 56.8935 13.976 56.6135 14.488C56.3335 15 55.9495 15.404 55.4615 15.7C54.9815 15.996 54.4335 16.144 53.8175 16.144ZM53.7335 15.064C54.1415 15.064 54.5055 14.964 54.8255 14.764C55.1455 14.564 55.3935 14.292 55.5695 13.948C55.7535 13.596 55.8455 13.204 55.8455 12.772C55.8455 12.324 55.7535 11.932 55.5695 11.596C55.3935 11.252 55.1455 10.98 54.8255 10.78C54.5055 10.572 54.1415 10.468 53.7335 10.468C53.3255 10.468 52.9575 10.568 52.6295 10.768C52.3095 10.968 52.0535 11.244 51.8615 11.596C51.6775 11.94 51.5855 12.332 51.5855 12.772C51.5855 13.204 51.6775 13.596 51.8615 13.948C52.0535 14.292 52.3095 14.564 52.6295 14.764C52.9575 14.964 53.3255 15.064 53.7335 15.064ZM61.5688 16.144C60.9448 16.144 60.3808 16 59.8768 15.712C59.3728 15.416 58.9728 15.012 58.6768 14.5C58.3808 13.988 58.2328 13.408 58.2328 12.76C58.2328 12.112 58.3768 11.536 58.6648 11.032C58.9608 10.528 59.3608 10.128 59.8648 9.832C60.3688 9.536 60.9368 9.388 61.5688 9.388C62.1928 9.388 62.7568 9.536 63.2608 9.832C63.7648 10.12 64.1608 10.516 64.4488 11.02C64.7448 11.524 64.8928 12.104 64.8928 12.76C64.8928 13.416 64.7408 14 64.4368 14.512C64.1328 15.016 63.7288 15.416 63.2248 15.712C62.7288 16 62.1768 16.144 61.5688 16.144ZM61.5688 15.064C61.9688 15.064 62.3288 14.964 62.6488 14.764C62.9768 14.564 63.2328 14.288 63.4168 13.936C63.6088 13.584 63.7048 13.192 63.7048 12.76C63.7048 12.32 63.6088 11.932 63.4168 11.596C63.2328 11.252 62.9768 10.98 62.6488 10.78C62.3288 10.572 61.9688 10.468 61.5688 10.468C61.1608 10.468 60.7928 10.572 60.4648 10.78C60.1448 10.98 59.8888 11.252 59.6968 11.596C59.5048 11.932 59.4088 12.32 59.4088 12.76C59.4088 13.192 59.5048 13.584 59.6968 13.936C59.8888 14.288 60.1448 14.564 60.4648 14.764C60.7928 14.964 61.1608 15.064 61.5688 15.064ZM65.382 16L67.65 12.76L65.394 9.532H66.738L68.67 12.34H67.986L69.894 9.532H71.25L68.994 12.76L71.238 16H69.894L67.986 13.192H68.658L66.75 16H65.382ZM72.3269 17.02V16H77.8709V17.02H72.3269ZM83.0563 16.144C82.4083 16.144 81.8323 16.008 81.3283 15.736C80.8323 15.464 80.4443 15.092 80.1643 14.62C79.8923 14.14 79.7563 13.596 79.7563 12.988V7.06H80.9443V12.964C80.9443 13.372 81.0323 13.736 81.2083 14.056C81.3923 14.368 81.6403 14.612 81.9523 14.788C82.2723 14.964 82.6403 15.052 83.0563 15.052C83.4723 15.052 83.8363 14.964 84.1483 14.788C84.4683 14.612 84.7163 14.368 84.8923 14.056C85.0763 13.736 85.1683 13.372 85.1683 12.964V7.06H86.3563V12.988C86.3563 13.596 86.2163 14.14 85.9363 14.62C85.6643 15.092 85.2803 15.464 84.7843 15.736C84.2883 16.008 83.7123 16.144 83.0563 16.144ZM88.157 16V9.532H89.249V10.792L89.069 10.684C89.229 10.276 89.485 9.96 89.837 9.736C90.197 9.504 90.617 9.388 91.097 9.388C91.561 9.388 91.973 9.492 92.333 9.7C92.701 9.908 92.989 10.196 93.197 10.564C93.413 10.932 93.521 11.348 93.521 11.812V16H92.393V12.172C92.393 11.812 92.329 11.508 92.201 11.26C92.073 11.012 91.889 10.82 91.649 10.684C91.417 10.54 91.149 10.468 90.845 10.468C90.541 10.468 90.269 10.54 90.029 10.684C89.797 10.82 89.613 11.016 89.477 11.272C89.341 11.52 89.273 11.82 89.273 12.172V16H88.157ZM98.1179 16.144C97.4859 16.144 96.9219 15.996 96.4259 15.7C95.9379 15.404 95.5539 15 95.2739 14.488C94.9939 13.976 94.8539 13.4 94.8539 12.76C94.8539 12.112 94.9939 11.536 95.2739 11.032C95.5539 10.528 95.9379 10.128 96.4259 9.832C96.9219 9.536 97.4859 9.388 98.1179 9.388C98.5419 9.388 98.9379 9.464 99.3059 9.616C99.6739 9.768 99.9979 9.972 100.278 10.228C100.558 10.484 100.762 10.784 100.89 11.128L99.8939 11.608C99.7419 11.272 99.5099 11 99.1979 10.792C98.8859 10.576 98.5259 10.468 98.1179 10.468C97.7259 10.468 97.3699 10.568 97.0499 10.768C96.7379 10.968 96.4899 11.24 96.3059 11.584C96.1219 11.928 96.0299 12.324 96.0299 12.772C96.0299 13.204 96.1219 13.596 96.3059 13.948C96.4899 14.292 96.7379 14.564 97.0499 14.764C97.3699 14.964 97.7259 15.064 98.1179 15.064C98.5259 15.064 98.8859 14.96 99.1979 14.752C99.5099 14.536 99.7419 14.252 99.8939 13.9L100.89 14.404C100.762 14.74 100.558 15.04 100.278 15.304C99.9979 15.56 99.6739 15.764 99.3059 15.916C98.9379 16.068 98.5419 16.144 98.1179 16.144ZM102.348 16V6.916H103.464V10.792L103.26 10.684C103.42 10.276 103.676 9.96 104.028 9.736C104.388 9.504 104.808 9.388 105.288 9.388C105.752 9.388 106.164 9.492 106.524 9.7C106.892 9.908 107.18 10.196 107.388 10.564C107.604 10.932 107.712 11.348 107.712 11.812V16H106.584V12.172C106.584 11.812 106.516 11.508 106.38 11.26C106.252 11.012 106.072 10.82 105.84 10.684C105.608 10.54 105.34 10.468 105.036 10.468C104.74 10.468 104.472 10.54 104.232 10.684C103.992 10.82 103.804 11.016 103.668 11.272C103.532 11.52 103.464 11.82 103.464 12.172V16H102.348ZM112.285 16.144C111.661 16.144 111.105 15.996 110.617 15.7C110.129 15.404 109.745 15 109.465 14.488C109.185 13.968 109.045 13.388 109.045 12.748C109.045 12.1 109.181 11.524 109.453 11.02C109.733 10.516 110.109 10.12 110.581 9.832C111.061 9.536 111.597 9.388 112.189 9.388C112.669 9.388 113.093 9.476 113.461 9.652C113.837 9.82 114.153 10.052 114.409 10.348C114.673 10.636 114.873 10.968 115.009 11.344C115.153 11.712 115.225 12.096 115.225 12.496C115.225 12.584 115.217 12.684 115.201 12.796C115.193 12.9 115.181 13 115.165 13.096H109.861V12.136H114.517L113.989 12.568C114.061 12.152 114.021 11.78 113.869 11.452C113.717 11.124 113.493 10.864 113.197 10.672C112.901 10.48 112.565 10.384 112.189 10.384C111.813 10.384 111.469 10.48 111.157 10.672C110.845 10.864 110.601 11.14 110.425 11.5C110.257 11.852 110.189 12.272 110.221 12.76C110.189 13.232 110.261 13.648 110.437 14.008C110.621 14.36 110.877 14.636 111.205 14.836C111.541 15.028 111.905 15.124 112.297 15.124C112.729 15.124 113.093 15.024 113.389 14.824C113.685 14.624 113.925 14.368 114.109 14.056L115.045 14.536C114.917 14.832 114.717 15.104 114.445 15.352C114.181 15.592 113.865 15.784 113.497 15.928C113.137 16.072 112.733 16.144 112.285 16.144ZM119.68 16.144C119.048 16.144 118.484 15.996 117.988 15.7C117.5 15.404 117.116 15 116.836 14.488C116.556 13.976 116.416 13.4 116.416 12.76C116.416 12.112 116.556 11.536 116.836 11.032C117.116 10.528 117.5 10.128 117.988 9.832C118.484 9.536 119.048 9.388 119.68 9.388C120.104 9.388 120.5 9.464 120.868 9.616C121.236 9.768 121.56 9.972 121.84 10.228C122.12 10.484 122.324 10.784 122.452 11.128L121.456 11.608C121.304 11.272 121.072 11 120.76 10.792C120.448 10.576 120.088 10.468 119.68 10.468C119.288 10.468 118.932 10.568 118.612 10.768C118.3 10.968 118.052 11.24 117.868 11.584C117.684 11.928 117.592 12.324 117.592 12.772C117.592 13.204 117.684 13.596 117.868 13.948C118.052 14.292 118.3 14.564 118.612 14.764C118.932 14.964 119.288 15.064 119.68 15.064C120.088 15.064 120.448 14.96 120.76 14.752C121.072 14.536 121.304 14.252 121.456 13.9L122.452 14.404C122.324 14.74 122.12 15.04 121.84 15.304C121.56 15.56 121.236 15.764 120.868 15.916C120.5 16.068 120.104 16.144 119.68 16.144ZM123.911 16V6.916H125.027V13.144L124.571 13.036L128.003 9.532H129.431L126.947 12.136L129.599 16H128.279L125.855 12.496L126.551 12.46L124.667 14.428L125.027 13.612V16H123.911ZM133.461 16.144C132.837 16.144 132.281 15.996 131.793 15.7C131.305 15.404 130.921 15 130.641 14.488C130.361 13.968 130.221 13.388 130.221 12.748C130.221 12.1 130.357 11.524 130.629 11.02C130.909 10.516 131.285 10.12 131.757 9.832C132.237 9.536 132.773 9.388 133.365 9.388C133.845 9.388 134.269 9.476 134.637 9.652C135.013 9.82 135.329 10.052 135.585 10.348C135.849 10.636 136.049 10.968 136.185 11.344C136.329 11.712 136.401 12.096 136.401 12.496C136.401 12.584 136.393 12.684 136.377 12.796C136.369 12.9 136.357 13 136.341 13.096H131.037V12.136H135.693L135.165 12.568C135.237 12.152 135.197 11.78 135.045 11.452C134.893 11.124 134.669 10.864 134.373 10.672C134.077 10.48 133.741 10.384 133.365 10.384C132.989 10.384 132.645 10.48 132.333 10.672C132.021 10.864 131.777 11.14 131.601 11.5C131.433 11.852 131.365 12.272 131.397 12.76C131.365 13.232 131.437 13.648 131.613 14.008C131.797 14.36 132.053 14.636 132.381 14.836C132.717 15.028 133.081 15.124 133.473 15.124C133.905 15.124 134.269 15.024 134.565 14.824C134.861 14.624 135.101 14.368 135.285 14.056L136.221 14.536C136.093 14.832 135.893 15.104 135.621 15.352C135.357 15.592 135.041 15.784 134.673 15.928C134.313 16.072 133.909 16.144 133.461 16.144ZM140.796 16.144C140.188 16.144 139.64 15.996 139.152 15.7C138.672 15.404 138.292 15 138.012 14.488C137.732 13.976 137.592 13.404 137.592 12.772C137.592 12.124 137.732 11.548 138.012 11.044C138.292 10.532 138.672 10.128 139.152 9.832C139.64 9.536 140.188 9.388 140.796 9.388C141.332 9.388 141.808 9.504 142.224 9.736C142.64 9.96 142.968 10.264 143.208 10.648L143.028 10.924V6.916H144.156V16H143.064V14.62L143.208 14.812C142.984 15.236 142.656 15.564 142.224 15.796C141.8 16.028 141.324 16.144 140.796 16.144ZM140.892 15.064C141.3 15.064 141.664 14.964 141.984 14.764C142.304 14.564 142.556 14.292 142.74 13.948C142.932 13.596 143.028 13.204 143.028 12.772C143.028 12.332 142.932 11.94 142.74 11.596C142.556 11.244 142.304 10.968 141.984 10.768C141.664 10.568 141.3 10.468 140.892 10.468C140.492 10.468 140.128 10.572 139.8 10.78C139.48 10.98 139.228 11.252 139.044 11.596C138.86 11.932 138.768 12.324 138.768 12.772C138.768 13.204 138.86 13.596 139.044 13.948C139.228 14.292 139.48 14.564 139.8 14.764C140.12 14.964 140.484 15.064 140.892 15.064Z" fill="white"/>
</g>
<defs>
<filter id="filter0_i_30788_66796" x="0" y="0" width="158" height="24" filterUnits="userSpaceOnUse" color-interpolation-filters="sRGB">
<feFlood flood-opacity="0" result="BackgroundImageFix"/>
<feBlend mode="normal" in="SourceGraphic" in2="BackgroundImageFix" result="shape"/>
<feColorMatrix in="SourceAlpha" type="matrix" values="0 0 0 0 0 0 0 0 0 0 0 0 0 0 0 0 0 0 127 0" result="hardAlpha"/>
<feOffset dy="1"/>
<feComposite in2="hardAlpha" operator="arithmetic" k2="-1" k3="1"/>
<feColorMatrix type="matrix" values="0 0 0 0 1 0 0 0 0 1 0 0 0 0 1 0 0 0 0.08 0"/>
<feBlend mode="normal" in2="shape" result="effect1_innerShadow_30788_66796"/>
</filter>
<clipPath id="bgblur_0_30788_66796_clip_path" transform="translate(0 0)"><rect width="158" height="24" rx="12"/>
</clipPath></defs>
</svg>
