<svg width="103" height="24" viewBox="0 0 103 24" fill="none" xmlns="http://www.w3.org/2000/svg">
<foreignObject x="0" y="0" width="103" height="24"><div xmlns="http://www.w3.org/1999/xhtml" style="backdrop-filter:blur(32px);clip-path:url(#bgblur_0_30788_66742_clip_path);height:100%;width:100%"></div></foreignObject><g filter="url(#filter0_i_30788_66742)" data-figma-bg-blur-radius="64">
<rect width="103" height="24" rx="12" fill="#121212"/>
<rect x="0.5" y="0.5" width="102" height="23" rx="11.5" stroke="#121212"/>
<path d="M12.996 16V7.06H15.924C16.828 7.06 17.616 7.244 18.288 7.612C18.96 7.98 19.48 8.5 19.848 9.172C20.216 9.836 20.4 10.62 20.4 11.524C20.4 12.42 20.216 13.204 19.848 13.876C19.48 14.548 18.96 15.072 18.288 15.448C17.616 15.816 16.828 16 15.924 16H12.996ZM14.172 14.92H15.936C16.6 14.92 17.172 14.78 17.652 14.5C18.14 14.22 18.516 13.828 18.78 13.324C19.044 12.812 19.176 12.212 19.176 11.524C19.176 10.828 19.04 10.228 18.768 9.724C18.504 9.22 18.128 8.832 17.64 8.56C17.16 8.28 16.592 8.14 15.936 8.14H14.172V14.92ZM21.7585 16V9.532H22.8505V10.72L22.7305 10.552C22.8825 10.184 23.1145 9.912 23.4265 9.736C23.7385 9.552 24.1185 9.46 24.5665 9.46H24.9625V10.516H24.3985C23.9425 10.516 23.5745 10.66 23.2945 10.948C23.0145 11.228 22.8745 11.628 22.8745 12.148V16H21.7585ZM27.8498 16.144C27.4258 16.144 27.0498 16.068 26.7218 15.916C26.4018 15.756 26.1498 15.54 25.9658 15.268C25.7818 14.988 25.6898 14.668 25.6898 14.308C25.6898 13.964 25.7618 13.656 25.9058 13.384C26.0578 13.104 26.2898 12.868 26.6018 12.676C26.9218 12.484 27.3218 12.348 27.8018 12.268L30.2018 11.872V12.808L28.0538 13.168C27.6378 13.24 27.3338 13.372 27.1418 13.564C26.9578 13.756 26.8658 13.992 26.8658 14.272C26.8658 14.536 26.9698 14.756 27.1778 14.932C27.3938 15.108 27.6618 15.196 27.9818 15.196C28.3898 15.196 28.7418 15.112 29.0378 14.944C29.3418 14.768 29.5778 14.532 29.7458 14.236C29.9218 13.94 30.0098 13.612 30.0098 13.252V11.608C30.0098 11.256 29.8778 10.972 29.6138 10.756C29.3578 10.532 29.0178 10.42 28.5938 10.42C28.2258 10.42 27.8978 10.516 27.6098 10.708C27.3298 10.892 27.1218 11.14 26.9858 11.452L26.0138 10.948C26.1338 10.652 26.3258 10.388 26.5898 10.156C26.8538 9.916 27.1618 9.728 27.5138 9.592C27.8658 9.456 28.2338 9.388 28.6178 9.388C29.1138 9.388 29.5498 9.484 29.9258 9.676C30.3018 9.86 30.5938 10.12 30.8018 10.456C31.0178 10.784 31.1258 11.168 31.1258 11.608V16H30.0338V14.776L30.2378 14.848C30.1018 15.104 29.9178 15.328 29.6858 15.52C29.4538 15.712 29.1818 15.864 28.8698 15.976C28.5578 16.088 28.2178 16.144 27.8498 16.144ZM35.9402 18.64C35.4842 18.64 35.0602 18.568 34.6682 18.424C34.2842 18.28 33.9522 18.08 33.6722 17.824C33.4002 17.576 33.1922 17.284 33.0482 16.948L34.0922 16.468C34.2042 16.772 34.4162 17.028 34.7282 17.236C35.0482 17.452 35.4482 17.56 35.9282 17.56C36.2962 17.56 36.6282 17.488 36.9242 17.344C37.2282 17.208 37.4682 17 37.6442 16.72C37.8202 16.448 37.9082 16.116 37.9082 15.724V14.272L38.1122 14.488C37.8882 14.928 37.5642 15.264 37.1402 15.496C36.7242 15.728 36.2642 15.844 35.7602 15.844C35.1522 15.844 34.6082 15.704 34.1282 15.424C33.6482 15.136 33.2722 14.748 33.0002 14.26C32.7282 13.764 32.5922 13.216 32.5922 12.616C32.5922 12.008 32.7282 11.46 33.0002 10.972C33.2722 10.484 33.6442 10.1 34.1162 9.82C34.5962 9.532 35.1402 9.388 35.7482 9.388C36.2522 9.388 36.7082 9.504 37.1162 9.736C37.5322 9.96 37.8642 10.272 38.1122 10.672L37.9442 10.972V9.532H39.0362V15.724C39.0362 16.284 38.9042 16.784 38.6402 17.224C38.3762 17.664 38.0082 18.008 37.5362 18.256C37.0722 18.512 36.5402 18.64 35.9402 18.64ZM35.8562 14.764C36.2402 14.764 36.5842 14.668 36.8882 14.476C37.2002 14.284 37.4482 14.028 37.6322 13.708C37.8162 13.38 37.9082 13.016 37.9082 12.616C37.9082 12.224 37.8162 11.864 37.6322 11.536C37.4482 11.208 37.2002 10.948 36.8882 10.756C36.5842 10.564 36.2402 10.468 35.8562 10.468C35.4642 10.468 35.1082 10.564 34.7882 10.756C34.4682 10.948 34.2162 11.208 34.0322 11.536C33.8562 11.856 33.7682 12.216 33.7682 12.616C33.7682 13.016 33.8562 13.38 34.0322 13.708C34.2162 14.028 34.4642 14.284 34.7762 14.476C35.0962 14.668 35.4562 14.764 35.8562 14.764ZM40.8503 17.02V16H46.3943V17.02H40.8503ZM50.7038 16L47.4758 7.06H48.7358L51.4718 14.92H51.2198L53.9557 7.06H55.2158L51.9998 16H50.7038ZM58.59 16.144C57.966 16.144 57.41 15.996 56.922 15.7C56.434 15.404 56.05 15 55.77 14.488C55.49 13.968 55.35 13.388 55.35 12.748C55.35 12.1 55.486 11.524 55.758 11.02C56.038 10.516 56.414 10.12 56.886 9.832C57.366 9.536 57.902 9.388 58.494 9.388C58.974 9.388 59.398 9.476 59.766 9.652C60.142 9.82 60.458 10.052 60.714 10.348C60.978 10.636 61.178 10.968 61.314 11.344C61.458 11.712 61.53 12.096 61.53 12.496C61.53 12.584 61.522 12.684 61.506 12.796C61.498 12.9 61.486 13 61.47 13.096H56.166V12.136H60.822L60.294 12.568C60.366 12.152 60.326 11.78 60.174 11.452C60.022 11.124 59.798 10.864 59.502 10.672C59.206 10.48 58.87 10.384 58.494 10.384C58.118 10.384 57.774 10.48 57.462 10.672C57.15 10.864 56.906 11.14 56.73 11.5C56.562 11.852 56.494 12.272 56.526 12.76C56.494 13.232 56.566 13.648 56.742 14.008C56.926 14.36 57.182 14.636 57.51 14.836C57.846 15.028 58.21 15.124 58.602 15.124C59.034 15.124 59.398 15.024 59.694 14.824C59.99 14.624 60.23 14.368 60.414 14.056L61.35 14.536C61.222 14.832 61.022 15.104 60.75 15.352C60.486 15.592 60.17 15.784 59.802 15.928C59.442 16.072 59.038 16.144 58.59 16.144ZM62.9851 16V9.532H64.0771V10.72L63.9571 10.552C64.1091 10.184 64.3411 9.912 64.6531 9.736C64.9651 9.552 65.3451 9.46 65.7931 9.46H66.1891V10.516H65.6251C65.1691 10.516 64.8011 10.66 64.5211 10.948C64.2411 11.228 64.1011 11.628 64.1011 12.148V16H62.9851ZM69.867 16.072C69.235 16.072 68.747 15.892 68.403 15.532C68.067 15.172 67.899 14.664 67.899 14.008V10.6H66.723V9.532H66.963C67.251 9.532 67.479 9.444 67.647 9.268C67.815 9.092 67.899 8.86 67.899 8.572V8.044H69.015V9.532H70.467V10.6H69.015V13.972C69.015 14.188 69.047 14.376 69.111 14.536C69.183 14.696 69.299 14.824 69.459 14.92C69.619 15.008 69.831 15.052 70.095 15.052C70.151 15.052 70.219 15.048 70.299 15.04C70.387 15.032 70.467 15.024 70.539 15.016V16C70.435 16.024 70.319 16.04 70.191 16.048C70.063 16.064 69.955 16.072 69.867 16.072ZM71.9968 16V9.532H73.1128V16H71.9968ZM71.9968 8.5V7.06H73.1128V8.5H71.9968ZM77.8445 16.144C77.2125 16.144 76.6485 15.996 76.1525 15.7C75.6645 15.404 75.2805 15 75.0005 14.488C74.7205 13.976 74.5805 13.4 74.5805 12.76C74.5805 12.112 74.7205 11.536 75.0005 11.032C75.2805 10.528 75.6645 10.128 76.1525 9.832C76.6485 9.536 77.2125 9.388 77.8445 9.388C78.2685 9.388 78.6645 9.464 79.0325 9.616C79.4005 9.768 79.7245 9.972 80.0045 10.228C80.2845 10.484 80.4885 10.784 80.6165 11.128L79.6205 11.608C79.4685 11.272 79.2365 11 78.9245 10.792C78.6125 10.576 78.2525 10.468 77.8445 10.468C77.4525 10.468 77.0965 10.568 76.7765 10.768C76.4645 10.968 76.2165 11.24 76.0325 11.584C75.8485 11.928 75.7565 12.324 75.7565 12.772C75.7565 13.204 75.8485 13.596 76.0325 13.948C76.2165 14.292 76.4645 14.564 76.7765 14.764C77.0965 14.964 77.4525 15.064 77.8445 15.064C78.2525 15.064 78.6125 14.96 78.9245 14.752C79.2365 14.536 79.4685 14.252 79.6205 13.9L80.6165 14.404C80.4885 14.74 80.2845 15.04 80.0045 15.304C79.7245 15.56 79.4005 15.764 79.0325 15.916C78.6645 16.068 78.2685 16.144 77.8445 16.144ZM83.8889 16.144C83.4649 16.144 83.0889 16.068 82.7609 15.916C82.4409 15.756 82.1889 15.54 82.0049 15.268C81.8209 14.988 81.7289 14.668 81.7289 14.308C81.7289 13.964 81.8009 13.656 81.9449 13.384C82.0969 13.104 82.3289 12.868 82.6409 12.676C82.9609 12.484 83.3609 12.348 83.8409 12.268L86.2409 11.872V12.808L84.0929 13.168C83.6769 13.24 83.3729 13.372 83.1809 13.564C82.9969 13.756 82.9049 13.992 82.9049 14.272C82.9049 14.536 83.0089 14.756 83.2169 14.932C83.4329 15.108 83.7009 15.196 84.0209 15.196C84.4289 15.196 84.7809 15.112 85.0769 14.944C85.3809 14.768 85.6169 14.532 85.7849 14.236C85.9609 13.94 86.0489 13.612 86.0489 13.252V11.608C86.0489 11.256 85.9169 10.972 85.6529 10.756C85.3969 10.532 85.0569 10.42 84.6329 10.42C84.2649 10.42 83.9369 10.516 83.6489 10.708C83.3689 10.892 83.1609 11.14 83.0249 11.452L82.0529 10.948C82.1729 10.652 82.3649 10.388 82.6289 10.156C82.8929 9.916 83.2009 9.728 83.5529 9.592C83.9049 9.456 84.2729 9.388 84.6569 9.388C85.1529 9.388 85.5889 9.484 85.9649 9.676C86.3409 9.86 86.6329 10.12 86.8409 10.456C87.0569 10.784 87.1649 11.168 87.1649 11.608V16H86.0729V14.776L86.2769 14.848C86.1409 15.104 85.9569 15.328 85.7249 15.52C85.4929 15.712 85.2209 15.864 84.9089 15.976C84.5969 16.088 84.2569 16.144 83.8889 16.144ZM88.8953 16V6.916H90.0113V16H88.8953Z" fill="white"/>
</g>
<defs>
<filter id="filter0_i_30788_66742" x="0" y="0" width="103" height="24" filterUnits="userSpaceOnUse" color-interpolation-filters="sRGB">
<feFlood flood-opacity="0" result="BackgroundImageFix"/>
<feBlend mode="normal" in="SourceGraphic" in2="BackgroundImageFix" result="shape"/>
<feColorMatrix in="SourceAlpha" type="matrix" values="0 0 0 0 0 0 0 0 0 0 0 0 0 0 0 0 0 0 127 0" result="hardAlpha"/>
<feOffset dy="1"/>
<feComposite in2="hardAlpha" operator="arithmetic" k2="-1" k3="1"/>
<feColorMatrix type="matrix" values="0 0 0 0 1 0 0 0 0 1 0 0 0 0 1 0 0 0 0.08 0"/>
<feBlend mode="normal" in2="shape" result="effect1_innerShadow_30788_66742"/>
</filter>
<clipPath id="bgblur_0_30788_66742_clip_path" transform="translate(0 0)"><rect width="103" height="24" rx="12"/>
</clipPath></defs>
</svg>
