<svg width="81" height="24" viewBox="0 0 81 24" fill="none" xmlns="http://www.w3.org/2000/svg">
<foreignObject x="0" y="0" width="81" height="24"><div xmlns="http://www.w3.org/1999/xhtml" style="backdrop-filter:blur(32px);clip-path:url(#bgblur_0_30788_66750_clip_path);height:100%;width:100%"></div></foreignObject><g filter="url(#filter0_i_30788_66750)" data-figma-bg-blur-radius="64">
<rect width="81" height="24" rx="12" fill="#121212"/>
<rect x="0.5" y="0.5" width="80" height="23" rx="11.5" stroke="#121212"/>
<path d="M14.556 16V8.14H12.132V7.06H18.132V8.14H15.744V16H14.556ZM18.4187 16V9.532H19.5107V10.72L19.3907 10.552C19.5427 10.184 19.7747 9.912 20.0867 9.736C20.3987 9.552 20.7787 9.46 21.2267 9.46H21.6227V10.516H21.0587C20.6027 10.516 20.2347 10.66 19.9547 10.948C19.6747 11.228 19.5347 11.628 19.5347 12.148V16H18.4187ZM24.51 16.144C24.086 16.144 23.71 16.068 23.382 15.916C23.062 15.756 22.81 15.54 22.626 15.268C22.442 14.988 22.35 14.668 22.35 14.308C22.35 13.964 22.422 13.656 22.566 13.384C22.718 13.104 22.95 12.868 23.262 12.676C23.582 12.484 23.982 12.348 24.462 12.268L26.862 11.872V12.808L24.714 13.168C24.298 13.24 23.994 13.372 23.802 13.564C23.618 13.756 23.526 13.992 23.526 14.272C23.526 14.536 23.63 14.756 23.838 14.932C24.054 15.108 24.322 15.196 24.642 15.196C25.05 15.196 25.402 15.112 25.698 14.944C26.002 14.768 26.238 14.532 26.406 14.236C26.582 13.94 26.67 13.612 26.67 13.252V11.608C26.67 11.256 26.538 10.972 26.274 10.756C26.018 10.532 25.678 10.42 25.254 10.42C24.886 10.42 24.558 10.516 24.27 10.708C23.99 10.892 23.782 11.14 23.646 11.452L22.674 10.948C22.794 10.652 22.986 10.388 23.25 10.156C23.514 9.916 23.822 9.728 24.174 9.592C24.526 9.456 24.894 9.388 25.278 9.388C25.774 9.388 26.21 9.484 26.586 9.676C26.962 9.86 27.254 10.12 27.462 10.456C27.678 10.784 27.786 11.168 27.786 11.608V16H26.694V14.776L26.898 14.848C26.762 15.104 26.578 15.328 26.346 15.52C26.114 15.712 25.842 15.864 25.53 15.976C25.218 16.088 24.878 16.144 24.51 16.144ZM31.8323 16.144C31.1843 16.144 30.6203 15.984 30.1403 15.664C29.6603 15.344 29.3203 14.912 29.1203 14.368L30.0083 13.936C30.1923 14.32 30.4443 14.624 30.7643 14.848C31.0843 15.072 31.4403 15.184 31.8323 15.184C32.1843 15.184 32.4763 15.1 32.7083 14.932C32.9403 14.764 33.0563 14.544 33.0563 14.272C33.0563 14.08 33.0003 13.928 32.8883 13.816C32.7843 13.696 32.6563 13.604 32.5043 13.54C32.3523 13.468 32.2123 13.416 32.0843 13.384L31.1123 13.108C30.5283 12.94 30.1003 12.7 29.8283 12.388C29.5643 12.076 29.4323 11.712 29.4323 11.296C29.4323 10.912 29.5283 10.58 29.7203 10.3C29.9203 10.012 30.1883 9.788 30.5243 9.628C30.8683 9.468 31.2523 9.388 31.6763 9.388C32.2443 9.388 32.7523 9.532 33.2003 9.82C33.6563 10.108 33.9803 10.512 34.1723 11.032L33.2603 11.452C33.1163 11.116 32.9003 10.852 32.6123 10.66C32.3243 10.46 32.0003 10.36 31.6403 10.36C31.3123 10.36 31.0523 10.444 30.8603 10.612C30.6683 10.772 30.5723 10.976 30.5723 11.224C30.5723 11.408 30.6203 11.56 30.7163 11.68C30.8123 11.792 30.9283 11.88 31.0643 11.944C31.2003 12 31.3323 12.048 31.4603 12.088L32.5163 12.4C33.0443 12.552 33.4523 12.788 33.7403 13.108C34.0363 13.428 34.1843 13.812 34.1843 14.26C34.1843 14.62 34.0843 14.944 33.8843 15.232C33.6843 15.52 33.4083 15.744 33.0563 15.904C32.7043 16.064 32.2963 16.144 31.8323 16.144ZM35.6453 16V6.916H36.7613V10.792L36.5573 10.684C36.7173 10.276 36.9733 9.96 37.3253 9.736C37.6853 9.504 38.1053 9.388 38.5853 9.388C39.0493 9.388 39.4613 9.492 39.8213 9.7C40.1893 9.908 40.4773 10.196 40.6853 10.564C40.9013 10.932 41.0093 11.348 41.0093 11.812V16H39.8813V12.172C39.8813 11.812 39.8133 11.508 39.6773 11.26C39.5493 11.012 39.3693 10.82 39.1373 10.684C38.9053 10.54 38.6373 10.468 38.3333 10.468C38.0373 10.468 37.7693 10.54 37.5293 10.684C37.2893 10.82 37.1013 11.016 36.9653 11.272C36.8293 11.52 36.7613 11.82 36.7613 12.172V16H35.6453ZM42.6902 17.02V16H48.2342V17.02H42.6902ZM50.1796 16V7.06H55.8436V8.14H51.3556V11.032H55.4236V12.112H51.3556V16H50.1796ZM59.2185 16.144C58.7545 16.144 58.3345 16.036 57.9585 15.82C57.5905 15.604 57.3025 15.304 57.0945 14.92C56.8945 14.528 56.7945 14.08 56.7945 13.576V9.532H57.9105V13.456C57.9105 13.776 57.9745 14.056 58.1025 14.296C58.2385 14.536 58.4225 14.724 58.6545 14.86C58.8945 14.996 59.1665 15.064 59.4705 15.064C59.7745 15.064 60.0425 14.996 60.2745 14.86C60.5145 14.724 60.6985 14.528 60.8265 14.272C60.9625 14.016 61.0305 13.712 61.0305 13.36V9.532H62.1585V16H61.0665V14.74L61.2465 14.848C61.0945 15.256 60.8345 15.576 60.4665 15.808C60.1065 16.032 59.6905 16.144 59.2185 16.144ZM63.8874 16V6.916H65.0034V16H63.8874ZM66.7351 16V6.916H67.8511V16H66.7351Z" fill="white"/>
</g>
<defs>
<filter id="filter0_i_30788_66750" x="0" y="0" width="81" height="24" filterUnits="userSpaceOnUse" color-interpolation-filters="sRGB">
<feFlood flood-opacity="0" result="BackgroundImageFix"/>
<feBlend mode="normal" in="SourceGraphic" in2="BackgroundImageFix" result="shape"/>
<feColorMatrix in="SourceAlpha" type="matrix" values="0 0 0 0 0 0 0 0 0 0 0 0 0 0 0 0 0 0 127 0" result="hardAlpha"/>
<feOffset dy="1"/>
<feComposite in2="hardAlpha" operator="arithmetic" k2="-1" k3="1"/>
<feColorMatrix type="matrix" values="0 0 0 0 1 0 0 0 0 1 0 0 0 0 1 0 0 0 0.08 0"/>
<feBlend mode="normal" in2="shape" result="effect1_innerShadow_30788_66750"/>
</filter>
<clipPath id="bgblur_0_30788_66750_clip_path" transform="translate(0 0)"><rect width="81" height="24" rx="12"/>
</clipPath></defs>
</svg>
