<svg width="110" height="24" viewBox="0 0 110 24" fill="none" xmlns="http://www.w3.org/2000/svg">
<foreignObject x="0" y="0" width="110" height="24"><div xmlns="http://www.w3.org/1999/xhtml" style="backdrop-filter:blur(32px);clip-path:url(#bgblur_0_30788_66789_clip_path);height:100%;width:100%"></div></foreignObject><g filter="url(#filter0_i_30788_66789)" data-figma-bg-blur-radius="64">
<rect width="110" height="24" rx="12" fill="#121212"/>
<rect x="0.5" y="0.5" width="109" height="23" rx="11.5" stroke="#121212"/>
<path d="M12.996 16V7.06H15.924C16.828 7.06 17.616 7.244 18.288 7.612C18.96 7.98 19.48 8.5 19.848 9.172C20.216 9.836 20.4 10.62 20.4 11.524C20.4 12.42 20.216 13.204 19.848 13.876C19.48 14.548 18.96 15.072 18.288 15.448C17.616 15.816 16.828 16 15.924 16H12.996ZM14.172 14.92H15.936C16.6 14.92 17.172 14.78 17.652 14.5C18.14 14.22 18.516 13.828 18.78 13.324C19.044 12.812 19.176 12.212 19.176 11.524C19.176 10.828 19.04 10.228 18.768 9.724C18.504 9.22 18.128 8.832 17.64 8.56C17.16 8.28 16.592 8.14 15.936 8.14H14.172V14.92ZM24.0505 16.144C23.5865 16.144 23.1665 16.036 22.7905 15.82C22.4225 15.604 22.1345 15.304 21.9265 14.92C21.7265 14.528 21.6265 14.08 21.6265 13.576V9.532H22.7425V13.456C22.7425 13.776 22.8065 14.056 22.9345 14.296C23.0705 14.536 23.2545 14.724 23.4865 14.86C23.7265 14.996 23.9985 15.064 24.3025 15.064C24.6065 15.064 24.8745 14.996 25.1065 14.86C25.3465 14.724 25.5305 14.528 25.6585 14.272C25.7945 14.016 25.8625 13.712 25.8625 13.36V9.532H26.9905V16H25.8985V14.74L26.0785 14.848C25.9265 15.256 25.6665 15.576 25.2985 15.808C24.9385 16.032 24.5225 16.144 24.0505 16.144ZM28.7195 16V9.532H29.8115V10.852L29.6555 10.648C29.8155 10.24 30.0715 9.928 30.4235 9.712C30.7755 9.496 31.1715 9.388 31.6115 9.388C32.1155 9.388 32.5675 9.528 32.9675 9.808C33.3755 10.088 33.6555 10.456 33.8075 10.912L33.4955 10.924C33.6635 10.42 33.9475 10.04 34.3475 9.784C34.7475 9.52 35.1915 9.388 35.6795 9.388C36.1275 9.388 36.5315 9.492 36.8915 9.7C37.2595 9.908 37.5515 10.196 37.7675 10.564C37.9835 10.932 38.0915 11.348 38.0915 11.812V16H36.9635V12.172C36.9635 11.812 36.8995 11.508 36.7715 11.26C36.6435 11.012 36.4675 10.82 36.2435 10.684C36.0275 10.54 35.7715 10.468 35.4755 10.468C35.1875 10.468 34.9275 10.54 34.6955 10.684C34.4715 10.82 34.2915 11.016 34.1555 11.272C34.0275 11.52 33.9635 11.82 33.9635 12.172V16H32.8355V12.172C32.8355 11.812 32.7715 11.508 32.6435 11.26C32.5155 11.012 32.3395 10.82 32.1155 10.684C31.8995 10.54 31.6435 10.468 31.3475 10.468C31.0595 10.468 30.7995 10.54 30.5675 10.684C30.3435 10.82 30.1635 11.016 30.0275 11.272C29.8995 11.52 29.8355 11.82 29.8355 12.172V16H28.7195ZM39.6765 16V9.532H40.7685V10.852L40.6125 10.648C40.7725 10.24 41.0285 9.928 41.3805 9.712C41.7325 9.496 42.1285 9.388 42.5685 9.388C43.0725 9.388 43.5245 9.528 43.9245 9.808C44.3325 10.088 44.6125 10.456 44.7645 10.912L44.4525 10.924C44.6205 10.42 44.9045 10.04 45.3045 9.784C45.7045 9.52 46.1485 9.388 46.6365 9.388C47.0845 9.388 47.4885 9.492 47.8485 9.7C48.2165 9.908 48.5085 10.196 48.7245 10.564C48.9405 10.932 49.0485 11.348 49.0485 11.812V16H47.9205V12.172C47.9205 11.812 47.8565 11.508 47.7285 11.26C47.6005 11.012 47.4245 10.82 47.2005 10.684C46.9845 10.54 46.7285 10.468 46.4325 10.468C46.1445 10.468 45.8845 10.54 45.6525 10.684C45.4285 10.82 45.2485 11.016 45.1125 11.272C44.9845 11.52 44.9205 11.82 44.9205 12.172V16H43.7925V12.172C43.7925 11.812 43.7285 11.508 43.6005 11.26C43.4725 11.012 43.2965 10.82 43.0725 10.684C42.8565 10.54 42.6005 10.468 42.3045 10.468C42.0165 10.468 41.7565 10.54 41.5245 10.684C41.3005 10.82 41.1205 11.016 40.9845 11.272C40.8565 11.52 40.7925 11.82 40.7925 12.172V16H39.6765ZM50.8643 18.64C50.7203 18.64 50.5763 18.628 50.4323 18.604C50.2883 18.588 50.1523 18.552 50.0243 18.496V17.5C50.1123 17.508 50.2203 17.524 50.3483 17.548C50.4843 17.572 50.6163 17.584 50.7443 17.584C51.1203 17.584 51.4043 17.5 51.5963 17.332C51.7963 17.164 51.9843 16.88 52.1603 16.48L52.5683 15.508L52.5443 16.48L49.7843 9.532H50.9963L53.1443 15.052H52.7843L54.9203 9.532H56.1563L53.2403 16.768C53.1043 17.112 52.9283 17.428 52.7123 17.716C52.5043 18.004 52.2483 18.228 51.9443 18.388C51.6403 18.556 51.2803 18.64 50.8643 18.64ZM57.2332 17.02V16H62.7772V17.02H57.2332ZM68.8386 16.144C68.2066 16.144 67.6226 16.032 67.0866 15.808C66.5586 15.576 66.0946 15.252 65.6946 14.836C65.3026 14.42 64.9986 13.932 64.7826 13.372C64.5666 12.812 64.4586 12.2 64.4586 11.536C64.4586 10.864 64.5666 10.248 64.7826 9.688C64.9986 9.128 65.3026 8.64 65.6946 8.224C66.0866 7.808 66.5506 7.488 67.0866 7.264C67.6226 7.032 68.2066 6.916 68.8386 6.916C69.4546 6.916 70.0066 7.024 70.4946 7.24C70.9906 7.456 71.4066 7.736 71.7426 8.08C72.0866 8.424 72.3306 8.792 72.4746 9.184L71.3946 9.676C71.1866 9.18 70.8626 8.78 70.4226 8.476C69.9826 8.164 69.4546 8.008 68.8386 8.008C68.2146 8.008 67.6586 8.156 67.1706 8.452C66.6906 8.748 66.3146 9.16 66.0426 9.688C65.7706 10.216 65.6346 10.832 65.6346 11.536C65.6346 12.232 65.7706 12.844 66.0426 13.372C66.3146 13.9 66.6906 14.312 67.1706 14.608C67.6586 14.904 68.2146 15.052 68.8386 15.052C69.4546 15.052 69.9826 14.9 70.4226 14.596C70.8626 14.284 71.1866 13.88 71.3946 13.384L72.4746 13.876C72.3306 14.268 72.0866 14.636 71.7426 14.98C71.4066 15.324 70.9906 15.604 70.4946 15.82C70.0066 16.036 69.4546 16.144 68.8386 16.144ZM73.9421 16V9.532H75.0581V16H73.9421ZM73.9421 8.5V7.06H75.0581V8.5H73.9421ZM76.7898 16V9.532H77.8818V10.72L77.7618 10.552C77.9138 10.184 78.1458 9.912 78.4578 9.736C78.7698 9.552 79.1498 9.46 79.5978 9.46H79.9938V10.516H79.4298C78.9738 10.516 78.6058 10.66 78.3258 10.948C78.0458 11.228 77.9058 11.628 77.9058 12.148V16H76.7898ZM83.9851 16.144C83.3531 16.144 82.7891 15.996 82.2931 15.7C81.8051 15.404 81.4211 15 81.1411 14.488C80.8611 13.976 80.7211 13.4 80.7211 12.76C80.7211 12.112 80.8611 11.536 81.1411 11.032C81.4211 10.528 81.8051 10.128 82.2931 9.832C82.7891 9.536 83.3531 9.388 83.9851 9.388C84.4091 9.388 84.8051 9.464 85.1731 9.616C85.5411 9.768 85.8651 9.972 86.1451 10.228C86.4251 10.484 86.6291 10.784 86.7571 11.128L85.7611 11.608C85.6091 11.272 85.3771 11 85.0651 10.792C84.7531 10.576 84.3931 10.468 83.9851 10.468C83.5931 10.468 83.2371 10.568 82.9171 10.768C82.6051 10.968 82.3571 11.24 82.1731 11.584C81.9891 11.928 81.8971 12.324 81.8971 12.772C81.8971 13.204 81.9891 13.596 82.1731 13.948C82.3571 14.292 82.6051 14.564 82.9171 14.764C83.2371 14.964 83.5931 15.064 83.9851 15.064C84.3931 15.064 84.7531 14.96 85.0651 14.752C85.3771 14.536 85.6091 14.252 85.7611 13.9L86.7571 14.404C86.6291 14.74 86.4251 15.04 86.1451 15.304C85.8651 15.56 85.5411 15.764 85.1731 15.916C84.8051 16.068 84.4091 16.144 83.9851 16.144ZM88.2156 16V6.916H89.3316V16H88.2156ZM94.0392 16.144C93.4152 16.144 92.8592 15.996 92.3712 15.7C91.8832 15.404 91.4992 15 91.2192 14.488C90.9392 13.968 90.7992 13.388 90.7992 12.748C90.7992 12.1 90.9352 11.524 91.2072 11.02C91.4872 10.516 91.8632 10.12 92.3352 9.832C92.8152 9.536 93.3512 9.388 93.9432 9.388C94.4232 9.388 94.8472 9.476 95.2152 9.652C95.5912 9.82 95.9072 10.052 96.1632 10.348C96.4272 10.636 96.6272 10.968 96.7632 11.344C96.9072 11.712 96.9792 12.096 96.9792 12.496C96.9792 12.584 96.9712 12.684 96.9552 12.796C96.9472 12.9 96.9352 13 96.9192 13.096H91.6152V12.136H96.2712L95.7432 12.568C95.8152 12.152 95.7752 11.78 95.6232 11.452C95.4712 11.124 95.2472 10.864 94.9512 10.672C94.6552 10.48 94.3192 10.384 93.9432 10.384C93.5672 10.384 93.2232 10.48 92.9112 10.672C92.5992 10.864 92.3552 11.14 92.1792 11.5C92.0112 11.852 91.9432 12.272 91.9752 12.76C91.9432 13.232 92.0152 13.648 92.1912 14.008C92.3752 14.36 92.6312 14.636 92.9592 14.836C93.2952 15.028 93.6592 15.124 94.0512 15.124C94.4832 15.124 94.8472 15.024 95.1432 14.824C95.4392 14.624 95.6792 14.368 95.8632 14.056L96.7992 14.536C96.6712 14.832 96.4712 15.104 96.1992 15.352C95.9352 15.592 95.6192 15.784 95.2512 15.928C94.8912 16.072 94.4872 16.144 94.0392 16.144Z" fill="white"/>
</g>
<defs>
<filter id="filter0_i_30788_66789" x="0" y="0" width="110" height="24" filterUnits="userSpaceOnUse" color-interpolation-filters="sRGB">
<feFlood flood-opacity="0" result="BackgroundImageFix"/>
<feBlend mode="normal" in="SourceGraphic" in2="BackgroundImageFix" result="shape"/>
<feColorMatrix in="SourceAlpha" type="matrix" values="0 0 0 0 0 0 0 0 0 0 0 0 0 0 0 0 0 0 127 0" result="hardAlpha"/>
<feOffset dy="1"/>
<feComposite in2="hardAlpha" operator="arithmetic" k2="-1" k3="1"/>
<feColorMatrix type="matrix" values="0 0 0 0 1 0 0 0 0 1 0 0 0 0 1 0 0 0 0.08 0"/>
<feBlend mode="normal" in2="shape" result="effect1_innerShadow_30788_66789"/>
</filter>
<clipPath id="bgblur_0_30788_66789_clip_path" transform="translate(0 0)"><rect width="110" height="24" rx="12"/>
</clipPath></defs>
</svg>
