<svg width="74" height="24" viewBox="0 0 74 24" fill="none" xmlns="http://www.w3.org/2000/svg">
<foreignObject x="0" y="0" width="74" height="24"><div xmlns="http://www.w3.org/1999/xhtml" style="backdrop-filter:blur(32px);clip-path:url(#bgblur_0_30788_66811_clip_path);height:100%;width:100%"></div></foreignObject><g filter="url(#filter0_i_30788_66811)" data-figma-bg-blur-radius="64">
<rect width="74" height="24" rx="12" fill="#121212"/>
<rect x="0.5" y="0.5" width="73" height="23" rx="11.5" stroke="#121212"/>
<path d="M16.068 16.144C15.5 16.144 14.98 16.04 14.508 15.832C14.036 15.616 13.636 15.324 13.308 14.956C12.98 14.588 12.744 14.176 12.6 13.72L13.62 13.3C13.836 13.876 14.156 14.32 14.58 14.632C15.012 14.936 15.516 15.088 16.092 15.088C16.444 15.088 16.752 15.032 17.016 14.92C17.28 14.808 17.484 14.652 17.628 14.452C17.78 14.244 17.856 14.004 17.856 13.732C17.856 13.356 17.748 13.06 17.532 12.844C17.324 12.62 17.016 12.452 16.608 12.34L14.964 11.836C14.316 11.636 13.82 11.32 13.476 10.888C13.132 10.456 12.96 9.96 12.96 9.4C12.96 8.912 13.076 8.484 13.308 8.116C13.548 7.74 13.876 7.448 14.292 7.24C14.716 7.024 15.196 6.916 15.732 6.916C16.268 6.916 16.752 7.012 17.184 7.204C17.624 7.396 17.996 7.656 18.3 7.984C18.604 8.304 18.828 8.672 18.972 9.088L17.964 9.508C17.772 9.004 17.484 8.624 17.1 8.368C16.716 8.104 16.264 7.972 15.744 7.972C15.424 7.972 15.14 8.028 14.892 8.14C14.652 8.244 14.464 8.4 14.328 8.608C14.2 8.808 14.136 9.048 14.136 9.328C14.136 9.656 14.24 9.948 14.448 10.204C14.656 10.46 14.972 10.656 15.396 10.792L16.896 11.236C17.6 11.452 18.132 11.76 18.492 12.16C18.852 12.56 19.032 13.056 19.032 13.648C19.032 14.136 18.904 14.568 18.648 14.944C18.4 15.32 18.052 15.616 17.604 15.832C17.164 16.04 16.652 16.144 16.068 16.144ZM22.9138 16.144C22.4498 16.144 22.0298 16.036 21.6538 15.82C21.2858 15.604 20.9978 15.304 20.7898 14.92C20.5898 14.528 20.4898 14.08 20.4898 13.576V9.532H21.6058V13.456C21.6058 13.776 21.6698 14.056 21.7978 14.296C21.9338 14.536 22.1178 14.724 22.3498 14.86C22.5898 14.996 22.8618 15.064 23.1658 15.064C23.4698 15.064 23.7378 14.996 23.9698 14.86C24.2098 14.724 24.3938 14.528 24.5218 14.272C24.6578 14.016 24.7258 13.712 24.7258 13.36V9.532H25.8538V16H24.7618V14.74L24.9418 14.848C24.7898 15.256 24.5298 15.576 24.1618 15.808C23.8018 16.032 23.3858 16.144 22.9138 16.144ZM27.5828 16V9.532H28.6988V16H27.5828ZM27.5828 8.5V7.06H28.6988V8.5H27.5828ZM33.0584 16.072C32.4264 16.072 31.9384 15.892 31.5944 15.532C31.2584 15.172 31.0904 14.664 31.0904 14.008V10.6H29.9144V9.532H30.1544C30.4424 9.532 30.6704 9.444 30.8384 9.268C31.0064 9.092 31.0904 8.86 31.0904 8.572V8.044H32.2064V9.532H33.6584V10.6H32.2064V13.972C32.2064 14.188 32.2384 14.376 32.3024 14.536C32.3744 14.696 32.4904 14.824 32.6504 14.92C32.8104 15.008 33.0224 15.052 33.2864 15.052C33.3424 15.052 33.4104 15.048 33.4904 15.04C33.5784 15.032 33.6584 15.024 33.7304 15.016V16C33.6264 16.024 33.5104 16.04 33.3824 16.048C33.2544 16.064 33.1464 16.072 33.0584 16.072ZM38.0124 16.144C37.3804 16.144 36.8164 15.996 36.3204 15.7C35.8324 15.404 35.4484 15 35.1684 14.488C34.8884 13.976 34.7484 13.4 34.7484 12.76C34.7484 12.112 34.8884 11.536 35.1684 11.032C35.4484 10.528 35.8324 10.128 36.3204 9.832C36.8164 9.536 37.3804 9.388 38.0124 9.388C38.4364 9.388 38.8324 9.464 39.2004 9.616C39.5684 9.768 39.8924 9.972 40.1724 10.228C40.4524 10.484 40.6564 10.784 40.7844 11.128L39.7884 11.608C39.6364 11.272 39.4044 11 39.0924 10.792C38.7804 10.576 38.4204 10.468 38.0124 10.468C37.6204 10.468 37.2644 10.568 36.9444 10.768C36.6324 10.968 36.3844 11.24 36.2004 11.584C36.0164 11.928 35.9244 12.324 35.9244 12.772C35.9244 13.204 36.0164 13.596 36.2004 13.948C36.3844 14.292 36.6324 14.564 36.9444 14.764C37.2644 14.964 37.6204 15.064 38.0124 15.064C38.4204 15.064 38.7804 14.96 39.0924 14.752C39.4044 14.536 39.6364 14.252 39.7884 13.9L40.7844 14.404C40.6564 14.74 40.4524 15.04 40.1724 15.304C39.8924 15.56 39.5684 15.764 39.2004 15.916C38.8324 16.068 38.4364 16.144 38.0124 16.144ZM44.0569 16.144C43.6329 16.144 43.2569 16.068 42.9289 15.916C42.6089 15.756 42.3569 15.54 42.1729 15.268C41.9889 14.988 41.8969 14.668 41.8969 14.308C41.8969 13.964 41.9689 13.656 42.1129 13.384C42.2649 13.104 42.4969 12.868 42.8089 12.676C43.1289 12.484 43.5289 12.348 44.0089 12.268L46.4089 11.872V12.808L44.2609 13.168C43.8449 13.24 43.5409 13.372 43.3489 13.564C43.1649 13.756 43.0729 13.992 43.0729 14.272C43.0729 14.536 43.1769 14.756 43.3849 14.932C43.6009 15.108 43.8689 15.196 44.1889 15.196C44.5969 15.196 44.9489 15.112 45.2449 14.944C45.5489 14.768 45.7849 14.532 45.9529 14.236C46.1289 13.94 46.2169 13.612 46.2169 13.252V11.608C46.2169 11.256 46.0849 10.972 45.8209 10.756C45.5649 10.532 45.2249 10.42 44.8009 10.42C44.4329 10.42 44.1049 10.516 43.8169 10.708C43.5369 10.892 43.3289 11.14 43.1929 11.452L42.2209 10.948C42.3409 10.652 42.5329 10.388 42.7969 10.156C43.0609 9.916 43.3689 9.728 43.7209 9.592C44.0729 9.456 44.4409 9.388 44.8249 9.388C45.3209 9.388 45.7569 9.484 46.1329 9.676C46.5089 9.86 46.8009 10.12 47.0089 10.456C47.2249 10.784 47.3329 11.168 47.3329 11.608V16H46.2409V14.776L46.4449 14.848C46.3089 15.104 46.1249 15.328 45.8929 15.52C45.6609 15.712 45.3889 15.864 45.0769 15.976C44.7649 16.088 44.4249 16.144 44.0569 16.144ZM51.3792 16.144C50.7312 16.144 50.1672 15.984 49.6872 15.664C49.2072 15.344 48.8672 14.912 48.6672 14.368L49.5552 13.936C49.7392 14.32 49.9912 14.624 50.3112 14.848C50.6312 15.072 50.9872 15.184 51.3792 15.184C51.7312 15.184 52.0232 15.1 52.2552 14.932C52.4872 14.764 52.6032 14.544 52.6032 14.272C52.6032 14.08 52.5472 13.928 52.4352 13.816C52.3312 13.696 52.2032 13.604 52.0512 13.54C51.8992 13.468 51.7592 13.416 51.6312 13.384L50.6592 13.108C50.0752 12.94 49.6472 12.7 49.3752 12.388C49.1112 12.076 48.9792 11.712 48.9792 11.296C48.9792 10.912 49.0752 10.58 49.2672 10.3C49.4672 10.012 49.7352 9.788 50.0712 9.628C50.4152 9.468 50.7992 9.388 51.2232 9.388C51.7912 9.388 52.2992 9.532 52.7472 9.82C53.2032 10.108 53.5272 10.512 53.7192 11.032L52.8072 11.452C52.6632 11.116 52.4472 10.852 52.1592 10.66C51.8712 10.46 51.5472 10.36 51.1872 10.36C50.8592 10.36 50.5992 10.444 50.4072 10.612C50.2152 10.772 50.1192 10.976 50.1192 11.224C50.1192 11.408 50.1672 11.56 50.2632 11.68C50.3592 11.792 50.4752 11.88 50.6112 11.944C50.7472 12 50.8792 12.048 51.0072 12.088L52.0632 12.4C52.5912 12.552 52.9992 12.788 53.2872 13.108C53.5832 13.428 53.7312 13.812 53.7312 14.26C53.7312 14.62 53.6312 14.944 53.4312 15.232C53.2312 15.52 52.9552 15.744 52.6032 15.904C52.2512 16.064 51.8432 16.144 51.3792 16.144ZM58.1681 16.144C57.5441 16.144 56.9881 15.996 56.5001 15.7C56.0121 15.404 55.6281 15 55.3481 14.488C55.0681 13.968 54.9281 13.388 54.9281 12.748C54.9281 12.1 55.0641 11.524 55.3361 11.02C55.6161 10.516 55.9921 10.12 56.4641 9.832C56.9441 9.536 57.4801 9.388 58.0721 9.388C58.5521 9.388 58.9761 9.476 59.3441 9.652C59.7201 9.82 60.0361 10.052 60.2921 10.348C60.5561 10.636 60.7561 10.968 60.8921 11.344C61.0361 11.712 61.1081 12.096 61.1081 12.496C61.1081 12.584 61.1001 12.684 61.0841 12.796C61.0761 12.9 61.0641 13 61.0481 13.096H55.7441V12.136H60.4001L59.8721 12.568C59.9441 12.152 59.9041 11.78 59.7521 11.452C59.6001 11.124 59.3761 10.864 59.0801 10.672C58.7841 10.48 58.4481 10.384 58.0721 10.384C57.6961 10.384 57.3521 10.48 57.0401 10.672C56.7281 10.864 56.4841 11.14 56.3081 11.5C56.1401 11.852 56.0721 12.272 56.1041 12.76C56.0721 13.232 56.1441 13.648 56.3201 14.008C56.5041 14.36 56.7601 14.636 57.0881 14.836C57.4241 15.028 57.7881 15.124 58.1801 15.124C58.6121 15.124 58.9761 15.024 59.2721 14.824C59.5681 14.624 59.8081 14.368 59.9921 14.056L60.9281 14.536C60.8001 14.832 60.6001 15.104 60.3281 15.352C60.0641 15.592 59.7481 15.784 59.3801 15.928C59.0201 16.072 58.6161 16.144 58.1681 16.144Z" fill="white"/>
</g>
<defs>
<filter id="filter0_i_30788_66811" x="0" y="0" width="74" height="24" filterUnits="userSpaceOnUse" color-interpolation-filters="sRGB">
<feFlood flood-opacity="0" result="BackgroundImageFix"/>
<feBlend mode="normal" in="SourceGraphic" in2="BackgroundImageFix" result="shape"/>
<feColorMatrix in="SourceAlpha" type="matrix" values="0 0 0 0 0 0 0 0 0 0 0 0 0 0 0 0 0 0 127 0" result="hardAlpha"/>
<feOffset dy="1"/>
<feComposite in2="hardAlpha" operator="arithmetic" k2="-1" k3="1"/>
<feColorMatrix type="matrix" values="0 0 0 0 1 0 0 0 0 1 0 0 0 0 1 0 0 0 0.08 0"/>
<feBlend mode="normal" in2="shape" result="effect1_innerShadow_30788_66811"/>
</filter>
<clipPath id="bgblur_0_30788_66811_clip_path" transform="translate(0 0)"><rect width="74" height="24" rx="12"/>
</clipPath></defs>
</svg>
