<svg width="192" height="192" viewBox="0 0 192 192" fill="none" xmlns="http://www.w3.org/2000/svg">
<path d="M125.68 66.32C124.936 65.5702 124.052 64.975 123.077 64.5689C122.102 64.1627 121.056 63.9536 120 63.9536C118.944 63.9536 117.898 64.1627 116.923 64.5689C115.949 64.975 115.064 65.5702 114.32 66.32L96 84.72L77.68 66.32C76.1736 64.8136 74.1304 63.9673 72 63.9673C69.8696 63.9673 67.8265 64.8136 66.32 66.32C64.8136 67.8265 63.9673 69.8696 63.9673 72C63.9673 74.1304 64.8136 76.1736 66.32 77.68L84.72 96L66.32 114.32C65.5702 115.064 64.975 115.949 64.5689 116.923C64.1627 117.898 63.9536 118.944 63.9536 120C63.9536 121.056 64.1627 122.102 64.5689 123.077C64.975 124.052 65.5702 124.936 66.32 125.68C67.0637 126.43 67.9485 127.025 68.9234 127.431C69.8983 127.837 70.9439 128.046 72 128.046C73.0561 128.046 74.1018 127.837 75.0766 127.431C76.0515 127.025 76.9363 126.43 77.68 125.68L96 107.28L114.32 125.68C115.064 126.43 115.949 127.025 116.923 127.431C117.898 127.837 118.944 128.046 120 128.046C121.056 128.046 122.102 127.837 123.077 127.431C124.052 127.025 124.936 126.43 125.68 125.68C126.43 124.936 127.025 124.052 127.431 123.077C127.837 122.102 128.046 121.056 128.046 120C128.046 118.944 127.837 117.898 127.431 116.923C127.025 115.949 126.43 115.064 125.68 114.32L107.28 96L125.68 77.68C126.43 76.9363 127.025 76.0515 127.431 75.0766C127.837 74.1018 128.046 73.0561 128.046 72C128.046 70.9439 127.837 69.8983 127.431 68.9234C127.025 67.9485 126.43 67.0637 125.68 66.32ZM152.56 39.44C145.18 31.7992 136.353 25.7046 126.592 21.5119C116.832 17.3192 106.334 15.1123 95.7121 15.02C85.0898 14.9277 74.5554 16.9518 64.7237 20.9743C54.892 24.9968 45.9598 30.937 38.4484 38.4484C30.937 45.9598 24.9968 54.892 20.9743 64.7237C16.9518 74.5554 14.9277 85.0898 15.02 95.7121C15.1123 106.334 17.3192 116.832 21.5119 126.592C25.7046 136.353 31.7992 145.18 39.44 152.56C46.8198 160.201 55.6473 166.295 65.4077 170.488C75.168 174.681 85.6656 176.888 96.2879 176.98C106.91 177.072 117.445 175.048 127.276 171.026C137.108 167.003 146.04 161.063 153.552 153.552C161.063 146.04 167.003 137.108 171.026 127.276C175.048 117.445 177.072 106.91 176.98 96.2879C176.888 85.6656 174.681 75.168 170.488 65.4077C166.295 55.6473 160.201 46.8198 152.56 39.44ZM141.28 141.28C130.816 151.755 117.044 158.279 102.31 159.738C87.5764 161.198 72.7921 157.504 60.4762 149.286C48.1603 141.068 39.0749 128.834 34.7678 114.668C30.4607 100.502 31.1985 85.2812 36.8553 71.5983C42.5122 57.9154 52.7382 46.6172 65.7912 39.6285C78.8441 32.6398 93.9164 30.3931 108.44 33.271C122.964 36.149 136.04 43.9736 145.442 55.4117C154.844 66.8499 159.988 81.1939 160 96C160.029 104.41 158.389 112.743 155.175 120.515C151.962 128.287 147.239 135.345 141.28 141.28Z" fill="black"/>
</svg>
